<svg width="75" height="112" viewBox="0 0 75 112" fill="none" xmlns="http://www.w3.org/2000/svg">
<path d="M29.7377 20.475C29.1962 20.4785 28.666 20.3198 28.2154 20.0193C27.7649 19.7187 27.4147 19.2902 27.2099 18.7888C27.0051 18.2874 26.9552 17.7362 27.0665 17.2062C27.1779 16.6762 27.4454 16.1916 27.8346 15.815C28.2238 15.4384 28.7168 15.187 29.2502 15.0931C29.7836 14.9993 30.3329 15.0673 30.8272 15.2885C31.3216 15.5096 31.7384 15.8737 32.024 16.3339C32.3095 16.7941 32.4508 17.3292 32.4294 17.8704C32.4014 18.5671 32.1062 19.2262 31.6049 19.7109C31.1037 20.1955 30.435 20.4685 29.7377 20.473V20.475ZM45.4405 20.475C44.8988 20.4789 44.3684 20.3205 43.9176 20.0202C43.4668 19.7199 43.1163 19.2915 42.9112 18.7902C42.7061 18.2888 42.6559 17.7376 42.767 17.2074C42.8781 16.6773 43.1454 16.1925 43.5346 15.8157C43.9237 15.4389 44.4167 15.1873 44.9502 15.0933C45.4836 14.9993 46.033 15.0672 46.5275 15.2883C47.022 15.5094 47.4389 15.8735 47.7246 16.3337C48.0102 16.7939 48.1515 17.3292 48.1301 17.8704C48.1022 18.5671 47.8069 19.2262 47.3056 19.7109C46.8044 20.1955 46.1357 20.4685 45.4385 20.473L45.4405 20.475Z" stroke="black" stroke-width="1.97917" stroke-linecap="round" stroke-linejoin="round"/>
<path d="M54.1725 1L49.189 6.95531M18.2249 27.509V23.0974C18.2251 20.5645 18.7257 18.0566 19.6979 15.7178C20.67 13.3789 22.0946 11.2551 23.8899 9.46832C25.6851 7.68155 27.8156 6.267 30.159 5.3059C32.5025 4.3448 35.0127 3.85608 37.5455 3.86781V3.86781C42.6455 3.86781 47.5367 5.89378 51.1429 9.50003C54.7492 13.1063 56.7751 17.9974 56.7751 23.0974V27.509H18.2249ZM20.9601 1L25.8111 6.95531L20.9601 1Z" stroke="black" stroke-width="1.97917" stroke-linecap="round" stroke-linejoin="round"/>
<path d="M8.2796 21.9515V62.75C8.42926 64.1612 9.05829 65.4784 10.0617 66.4818C11.0652 67.4853 12.3824 68.1143 13.7936 68.264H59.0037V38.4914H61.2085C62.6196 38.3417 63.9368 37.7127 64.9403 36.7092C65.9437 35.7058 66.5727 34.3886 66.7224 32.9774C66.5727 31.5662 65.9437 30.249 64.9403 29.2456C63.9368 28.2421 62.6196 27.6131 61.2085 27.4634H13.7936C12.3827 27.3139 11.0657 26.6851 10.0623 25.6821C9.0589 24.679 8.42969 23.3623 8.2796 21.9515C8.42926 20.5403 9.05829 19.2231 10.0617 18.2196C11.0652 17.2162 12.3824 16.5872 13.7936 16.4375H19.1967" stroke="black" stroke-width="1.97917" stroke-linecap="round" stroke-linejoin="round"/>
<path d="M59.0017 68.264V78.1875H61.2085C62.6197 78.0379 63.9369 77.4088 64.9403 76.4054C65.9438 75.4019 66.5728 74.0847 66.7224 72.6736V32.9774" stroke="black" stroke-width="1.97917" stroke-linecap="round" stroke-linejoin="round"/>
<path d="M37.5 48.4169C39.9364 48.4169 41.9116 46.4418 41.9116 44.0053C41.9116 41.5689 39.9364 39.5938 37.5 39.5938C35.0636 39.5938 33.0884 41.5689 33.0884 44.0053C33.0884 46.4418 35.0636 48.4169 37.5 48.4169Z" stroke="black" stroke-width="1.97917" stroke-linecap="round" stroke-linejoin="round"/>
<path d="M50.7328 75.9827L37.5 48.4149L24.2673 75.9827M37.5 38.9604V34.6775V38.9604Z" stroke="black" stroke-width="1.97917" stroke-linecap="round" stroke-linejoin="round"/>
<path d="M6.98242 93.7695L2.73438 106.094H0.166016L5.51758 91.875H7.1582L6.98242 93.7695ZM10.5371 106.094L6.2793 93.7695L6.09375 91.875H7.74414L13.1152 106.094H10.5371ZM10.332 100.82V102.764H2.59766V100.82H10.332ZM16.6602 97.5586V110.156H14.3066V95.5273H16.4746L16.6602 97.5586ZM23.5449 100.713V100.918C23.5449 101.686 23.4538 102.399 23.2715 103.057C23.0957 103.708 22.832 104.277 22.4805 104.766C22.1354 105.247 21.709 105.622 21.2012 105.889C20.6934 106.156 20.1074 106.289 19.4434 106.289C18.7858 106.289 18.2096 106.169 17.7148 105.928C17.2266 105.68 16.8132 105.332 16.4746 104.883C16.1361 104.434 15.8626 103.906 15.6543 103.301C15.4525 102.689 15.3092 102.018 15.2246 101.289V100.498C15.3092 99.7233 15.4525 99.0202 15.6543 98.3887C15.8626 97.7572 16.1361 97.2135 16.4746 96.7578C16.8132 96.3021 17.2266 95.9505 17.7148 95.7031C18.2031 95.4557 18.7728 95.332 19.4238 95.332C20.0879 95.332 20.6771 95.4622 21.1914 95.7227C21.7057 95.9766 22.1387 96.3411 22.4902 96.8164C22.8418 97.2852 23.1055 97.8516 23.2812 98.5156C23.457 99.1732 23.5449 99.9056 23.5449 100.713ZM21.1914 100.918V100.713C21.1914 100.225 21.1458 99.7721 21.0547 99.3555C20.9635 98.9323 20.8203 98.5612 20.625 98.2422C20.4297 97.9232 20.179 97.6758 19.873 97.5C19.5736 97.3177 19.2122 97.2266 18.7891 97.2266C18.3724 97.2266 18.0143 97.2982 17.7148 97.4414C17.4154 97.5781 17.1647 97.7702 16.9629 98.0176C16.7611 98.265 16.6048 98.5547 16.4941 98.8867C16.3835 99.2122 16.3053 99.5671 16.2598 99.9512V101.846C16.3379 102.314 16.4714 102.744 16.6602 103.135C16.849 103.525 17.1159 103.838 17.4609 104.072C17.8125 104.3 18.2617 104.414 18.8086 104.414C19.2318 104.414 19.5931 104.323 19.8926 104.141C20.1921 103.958 20.4362 103.708 20.625 103.389C20.8203 103.063 20.9635 102.689 21.0547 102.266C21.1458 101.842 21.1914 101.393 21.1914 100.918ZM27.9102 97.5586V110.156H25.5566V95.5273H27.7246L27.9102 97.5586ZM34.7949 100.713V100.918C34.7949 101.686 34.7038 102.399 34.5215 103.057C34.3457 103.708 34.082 104.277 33.7305 104.766C33.3854 105.247 32.959 105.622 32.4512 105.889C31.9434 106.156 31.3574 106.289 30.6934 106.289C30.0358 106.289 29.4596 106.169 28.9648 105.928C28.4766 105.68 28.0632 105.332 27.7246 104.883C27.3861 104.434 27.1126 103.906 26.9043 103.301C26.7025 102.689 26.5592 102.018 26.4746 101.289V100.498C26.5592 99.7233 26.7025 99.0202 26.9043 98.3887C27.1126 97.7572 27.3861 97.2135 27.7246 96.7578C28.0632 96.3021 28.4766 95.9505 28.9648 95.7031C29.4531 95.4557 30.0228 95.332 30.6738 95.332C31.3379 95.332 31.9271 95.4622 32.4414 95.7227C32.9557 95.9766 33.3887 96.3411 33.7402 96.8164C34.0918 97.2852 34.3555 97.8516 34.5312 98.5156C34.707 99.1732 34.7949 99.9056 34.7949 100.713ZM32.4414 100.918V100.713C32.4414 100.225 32.3958 99.7721 32.3047 99.3555C32.2135 98.9323 32.0703 98.5612 31.875 98.2422C31.6797 97.9232 31.429 97.6758 31.123 97.5C30.8236 97.3177 30.4622 97.2266 30.0391 97.2266C29.6224 97.2266 29.2643 97.2982 28.9648 97.4414C28.6654 97.5781 28.4147 97.7702 28.2129 98.0176C28.0111 98.265 27.8548 98.5547 27.7441 98.8867C27.6335 99.2122 27.5553 99.5671 27.5098 99.9512V101.846C27.5879 102.314 27.7214 102.744 27.9102 103.135C28.099 103.525 28.3659 103.838 28.7109 104.072C29.0625 104.3 29.5117 104.414 30.0586 104.414C30.4818 104.414 30.8431 104.323 31.1426 104.141C31.4421 103.958 31.6862 103.708 31.875 103.389C32.0703 103.063 32.2135 102.689 32.3047 102.266C32.3958 101.842 32.4414 101.393 32.4414 100.918ZM47.3438 99.668H43.7207L43.7012 97.8809H46.8652C47.3991 97.8809 47.8516 97.8027 48.2227 97.6465C48.6003 97.4837 48.8867 97.2526 49.082 96.9531C49.2773 96.6471 49.375 96.2793 49.375 95.8496C49.375 95.3743 49.2839 94.987 49.1016 94.6875C48.9193 94.388 48.6393 94.1699 48.2617 94.0332C47.8906 93.8965 47.4154 93.8281 46.8359 93.8281H44.4629V106.094H42.0117V91.875H46.8359C47.6172 91.875 48.3138 91.9499 48.9258 92.0996C49.5443 92.2493 50.0684 92.4837 50.498 92.8027C50.9342 93.1152 51.263 93.5124 51.4844 93.9941C51.7122 94.4759 51.8262 95.0488 51.8262 95.7129C51.8262 96.2988 51.6862 96.8359 51.4062 97.3242C51.1263 97.806 50.7129 98.1999 50.166 98.5059C49.6191 98.8118 48.9388 98.9941 48.125 99.0527L47.3438 99.668ZM47.2363 106.094H42.9492L44.0527 104.15H47.2363C47.7897 104.15 48.252 104.059 48.623 103.877C48.9941 103.688 49.2708 103.431 49.4531 103.105C49.6419 102.773 49.7363 102.386 49.7363 101.943C49.7363 101.481 49.6549 101.081 49.4922 100.742C49.3294 100.397 49.0723 100.133 48.7207 99.9512C48.3691 99.7624 47.9102 99.668 47.3438 99.668H44.5898L44.6094 97.8809H48.1934L48.75 98.5547C49.5312 98.5807 50.1725 98.7533 50.6738 99.0723C51.1816 99.3913 51.5592 99.8047 51.8066 100.312C52.054 100.82 52.1777 101.367 52.1777 101.953C52.1777 102.858 51.9792 103.617 51.582 104.229C51.1914 104.84 50.6283 105.306 49.8926 105.625C49.1569 105.938 48.2715 106.094 47.2363 106.094ZM60.7715 103.604V95.5273H63.1348V106.094H60.9082L60.7715 103.604ZM61.1035 101.406L61.8945 101.387C61.8945 102.096 61.8164 102.751 61.6602 103.35C61.5039 103.942 61.263 104.46 60.9375 104.902C60.612 105.339 60.1953 105.68 59.6875 105.928C59.1797 106.169 58.571 106.289 57.8613 106.289C57.347 106.289 56.875 106.214 56.4453 106.064C56.0156 105.915 55.6445 105.684 55.332 105.371C55.026 105.059 54.7884 104.652 54.6191 104.15C54.4499 103.649 54.3652 103.05 54.3652 102.354V95.5273H56.7188V102.373C56.7188 102.757 56.7643 103.079 56.8555 103.34C56.9466 103.594 57.0703 103.799 57.2266 103.955C57.3828 104.111 57.5651 104.222 57.7734 104.287C57.9818 104.352 58.2031 104.385 58.4375 104.385C59.1081 104.385 59.6354 104.255 60.0195 103.994C60.4102 103.727 60.6868 103.369 60.8496 102.92C61.0189 102.471 61.1035 101.966 61.1035 101.406ZM68.6133 104.941L71.4844 95.5273H74.0039L69.7656 107.705C69.668 107.965 69.541 108.249 69.3848 108.555C69.2285 108.861 69.0234 109.15 68.7695 109.424C68.5221 109.704 68.2129 109.928 67.8418 110.098C67.4707 110.273 67.0215 110.361 66.4941 110.361C66.2858 110.361 66.084 110.342 65.8887 110.303C65.6999 110.27 65.5208 110.234 65.3516 110.195L65.3418 108.398C65.4069 108.405 65.485 108.411 65.5762 108.418C65.6738 108.424 65.752 108.428 65.8105 108.428C66.2012 108.428 66.5267 108.379 66.7871 108.281C67.0475 108.19 67.2591 108.04 67.4219 107.832C67.5911 107.624 67.7344 107.344 67.8516 106.992L68.6133 104.941ZM66.9922 95.5273L69.502 103.438L69.9219 105.918L68.291 106.338L64.4531 95.5273H66.9922Z" fill="black"/>
</svg>
