<svg width="146" height="111" viewBox="0 0 146 111" fill="none" xmlns="http://www.w3.org/2000/svg">
<path d="M97 35C97 54.33 79.763 70 58.5 70C37.237 70 20 54.33 20 35C20 15.67 37.237 0 58.5 0C79.763 0 97 15.67 97 35Z" fill="url(#paint0_linear_8_19)"/>
<path d="M10.3359 99.1397H12.8994C12.8174 100.117 12.5439 100.989 12.0791 101.754C11.6143 102.513 10.9614 103.111 10.1206 103.549C9.27979 103.986 8.25781 104.205 7.05469 104.205C6.13184 104.205 5.30127 104.041 4.56299 103.713C3.82471 103.378 3.19238 102.906 2.66602 102.298C2.13965 101.683 1.73633 100.941 1.45605 100.073C1.18262 99.2046 1.0459 98.2339 1.0459 97.1607V95.92C1.0459 94.8467 1.18604 93.876 1.46631 93.0078C1.75342 92.1397 2.16357 91.398 2.69678 90.7827C3.22998 90.1607 3.86914 89.6856 4.61426 89.3575C5.36621 89.0293 6.21045 88.8653 7.14697 88.8653C8.33643 88.8653 9.34131 89.084 10.1616 89.5215C10.9819 89.959 11.6177 90.564 12.0688 91.3365C12.5269 92.1089 12.8071 92.9942 12.9097 93.9922H10.3462C10.2778 93.3496 10.1274 92.7993 9.89502 92.3413C9.66943 91.8833 9.33447 91.5347 8.89014 91.2954C8.4458 91.0493 7.86475 90.9263 7.14697 90.9263C6.55908 90.9263 6.04639 91.0357 5.60889 91.2544C5.17139 91.4732 4.80566 91.7945 4.51172 92.2183C4.21777 92.6421 3.99561 93.1651 3.84521 93.7871C3.70166 94.4024 3.62988 95.1065 3.62988 95.8994V97.1607C3.62988 97.9126 3.69482 98.5962 3.82471 99.2115C3.96143 99.8199 4.1665 100.343 4.43994 100.78C4.72021 101.218 5.07568 101.556 5.50635 101.795C5.93701 102.035 6.45312 102.154 7.05469 102.154C7.78613 102.154 8.37744 102.038 8.82861 101.806C9.28662 101.573 9.63184 101.235 9.86426 100.791C10.1035 100.339 10.2607 99.7891 10.3359 99.1397ZM17.4316 88.25V104H14.9707V88.25H17.4316ZM17.001 98.0425L16.2012 98.0323C16.208 97.2666 16.314 96.5591 16.519 95.9097C16.731 95.2603 17.0249 94.6963 17.4009 94.2178C17.7837 93.7325 18.2417 93.3599 18.7749 93.1001C19.3081 92.8335 19.8994 92.7002 20.5488 92.7002C21.0957 92.7002 21.5879 92.7754 22.0254 92.9258C22.4697 93.0762 22.8525 93.3189 23.1738 93.6538C23.4951 93.982 23.7378 94.4126 23.9019 94.9458C24.0728 95.4722 24.1582 96.1148 24.1582 96.8736V104H21.6768V96.8531C21.6768 96.3199 21.5981 95.896 21.4409 95.5816C21.2905 95.2671 21.0684 95.0415 20.7744 94.9048C20.4805 94.7613 20.1216 94.6895 19.6978 94.6895C19.2534 94.6895 18.8604 94.7784 18.5186 94.9561C18.1836 95.1338 17.9033 95.3765 17.6777 95.6841C17.4521 95.9917 17.2812 96.3472 17.165 96.7505C17.0557 97.1538 17.001 97.5845 17.001 98.0425ZM31.5513 104.205C30.731 104.205 29.9893 104.072 29.3262 103.805C28.6699 103.532 28.1094 103.152 27.6445 102.667C27.1865 102.182 26.8345 101.611 26.5884 100.955C26.3423 100.298 26.2192 99.5909 26.2192 98.8321V98.4219C26.2192 97.5537 26.3457 96.7676 26.5986 96.0635C26.8516 95.3594 27.2036 94.7578 27.6548 94.2588C28.106 93.753 28.6392 93.3667 29.2544 93.1001C29.8696 92.8335 30.5361 92.7002 31.2539 92.7002C32.0469 92.7002 32.7407 92.8335 33.3354 93.1001C33.9302 93.3667 34.4224 93.7427 34.812 94.2281C35.2085 94.7066 35.5024 95.2774 35.6938 95.9405C35.8921 96.6035 35.9912 97.335 35.9912 98.1348V99.1909H27.4189V97.417H33.5508V97.2222C33.5371 96.7779 33.4482 96.3609 33.2842 95.9712C33.127 95.5816 32.8843 95.2671 32.5562 95.0279C32.228 94.7886 31.7905 94.669 31.2437 94.669C30.8335 94.669 30.4678 94.7578 30.1465 94.9356C29.832 95.1065 29.5688 95.356 29.3569 95.6841C29.145 96.0122 28.981 96.4087 28.8647 96.8736C28.7554 97.3316 28.7007 97.8477 28.7007 98.4219V98.8321C28.7007 99.3174 28.7656 99.7686 28.8955 100.186C29.0322 100.596 29.2305 100.955 29.4902 101.262C29.75 101.57 30.0645 101.813 30.4336 101.99C30.8027 102.161 31.2231 102.247 31.6948 102.247C32.2896 102.247 32.8193 102.127 33.2842 101.888C33.749 101.648 34.1523 101.31 34.4941 100.873L35.7964 102.134C35.5571 102.482 35.2461 102.817 34.8633 103.139C34.4805 103.453 34.0122 103.71 33.4585 103.908C32.9116 104.106 32.2759 104.205 31.5513 104.205ZM42.4512 102.236C42.8545 102.236 43.2168 102.158 43.5381 102.001C43.8662 101.836 44.1294 101.611 44.3276 101.324C44.5327 101.037 44.6455 100.705 44.666 100.329H46.9937C46.98 101.047 46.7681 101.7 46.3579 102.288C45.9478 102.876 45.4043 103.344 44.7275 103.692C44.0508 104.034 43.3022 104.205 42.4819 104.205C41.6343 104.205 40.896 104.062 40.2671 103.774C39.6382 103.48 39.1152 103.077 38.6982 102.564C38.2812 102.052 37.9668 101.46 37.7549 100.791C37.5498 100.121 37.4473 99.4029 37.4473 98.6372V98.2784C37.4473 97.5127 37.5498 96.795 37.7549 96.125C37.9668 95.4483 38.2812 94.8535 38.6982 94.3409C39.1152 93.8282 39.6382 93.4283 40.2671 93.1411C40.896 92.8472 41.6309 92.7002 42.4717 92.7002C43.3604 92.7002 44.1396 92.878 44.8096 93.2334C45.4795 93.5821 46.0059 94.0708 46.3887 94.6997C46.7783 95.3218 46.98 96.0464 46.9937 96.8736H44.666C44.6455 96.4634 44.543 96.0943 44.3584 95.7661C44.1807 95.4312 43.9277 95.1646 43.5996 94.9663C43.2783 94.7681 42.8921 94.669 42.4409 94.669C41.9419 94.669 41.5283 94.7715 41.2002 94.9766C40.8721 95.1748 40.6157 95.4483 40.4312 95.7969C40.2466 96.1387 40.1133 96.5249 40.0312 96.9556C39.9561 97.3794 39.9185 97.8203 39.9185 98.2784V98.6372C39.9185 99.0952 39.9561 99.5396 40.0312 99.9702C40.1064 100.401 40.2363 100.787 40.4209 101.129C40.6123 101.464 40.8721 101.734 41.2002 101.939C41.5283 102.137 41.9453 102.236 42.4512 102.236ZM51.3823 88.25V104H48.9009V88.25H51.3823ZM58.2729 92.9053L53.4434 98.2578L50.7979 100.965L50.1519 98.8731L52.1514 96.4019L55.2891 92.9053H58.2729ZM55.8223 104L52.2231 98.791L53.7817 97.0581L58.6831 104H55.8223ZM70.916 97.253H67.1118L67.0913 95.3765H70.4136C70.9741 95.3765 71.4492 95.2945 71.8389 95.1304C72.2354 94.9595 72.5361 94.7168 72.7412 94.4024C72.9463 94.0811 73.0488 93.6949 73.0488 93.2437C73.0488 92.7447 72.9531 92.3379 72.7617 92.0235C72.5703 91.709 72.2764 91.48 71.8799 91.3365C71.4902 91.1929 70.9912 91.1211 70.3828 91.1211H67.8911V104H65.3174V89.0703H70.3828C71.2031 89.0703 71.9346 89.149 72.5771 89.3062C73.2266 89.4634 73.7769 89.7095 74.228 90.0445C74.686 90.3726 75.0312 90.7896 75.2637 91.2954C75.5029 91.8013 75.6226 92.4029 75.6226 93.1001C75.6226 93.7154 75.4756 94.2793 75.1816 94.792C74.8877 95.2979 74.4536 95.7115 73.8794 96.0327C73.3052 96.354 72.5908 96.5454 71.7363 96.607L70.916 97.253ZM70.8032 104H66.3018L67.4604 101.96H70.8032C71.3843 101.96 71.8696 101.864 72.2593 101.672C72.6489 101.474 72.9395 101.204 73.1309 100.862C73.3291 100.514 73.4282 100.107 73.4282 99.6421C73.4282 99.1568 73.3428 98.7364 73.1719 98.3809C73.001 98.0186 72.731 97.7417 72.3618 97.5503C71.9927 97.3521 71.5107 97.253 70.916 97.253H68.0244L68.0449 95.3765H71.8081L72.3926 96.084C73.2129 96.1114 73.8862 96.2925 74.4126 96.6275C74.9458 96.9624 75.3423 97.3965 75.6021 97.9297C75.8618 98.4629 75.9917 99.0371 75.9917 99.6524C75.9917 100.603 75.7832 101.399 75.3662 102.042C74.9561 102.684 74.3647 103.173 73.5923 103.508C72.8198 103.836 71.8901 104 70.8032 104ZM84.5947 101.775V96.4839C84.5947 96.0874 84.5229 95.7456 84.3794 95.4585C84.2358 95.1714 84.0171 94.9492 83.7231 94.792C83.436 94.6348 83.0737 94.5562 82.6362 94.5562C82.2329 94.5562 81.8843 94.6245 81.5903 94.7613C81.2964 94.898 81.0674 95.0826 80.9033 95.315C80.7393 95.5474 80.6572 95.8106 80.6572 96.1045H78.1963C78.1963 95.667 78.3022 95.2432 78.5142 94.833C78.7261 94.4229 79.0337 94.0572 79.437 93.7359C79.8403 93.4146 80.3223 93.1617 80.8828 92.9771C81.4434 92.7925 82.0723 92.7002 82.7695 92.7002C83.6035 92.7002 84.3418 92.8404 84.9844 93.1206C85.6338 93.4009 86.1431 93.8247 86.5122 94.3921C86.8882 94.9527 87.0762 95.6568 87.0762 96.5044V101.437C87.0762 101.942 87.1104 102.397 87.1787 102.8C87.2539 103.197 87.3599 103.542 87.4966 103.836V104H84.9639C84.8477 103.733 84.7554 103.395 84.687 102.985C84.6255 102.568 84.5947 102.165 84.5947 101.775ZM84.9536 97.253L84.9741 98.7808H83.2002C82.7422 98.7808 82.3389 98.8252 81.9902 98.9141C81.6416 98.9961 81.3511 99.1192 81.1187 99.2832C80.8862 99.4473 80.7119 99.6455 80.5957 99.878C80.4795 100.11 80.4214 100.374 80.4214 100.668C80.4214 100.961 80.4897 101.231 80.6265 101.478C80.7632 101.717 80.9614 101.905 81.2212 102.042C81.4878 102.178 81.8091 102.247 82.1851 102.247C82.6909 102.247 83.1318 102.144 83.5078 101.939C83.8906 101.727 84.1914 101.471 84.4102 101.17C84.6289 100.862 84.7451 100.572 84.7588 100.298L85.5586 101.396C85.4766 101.676 85.3364 101.977 85.1382 102.298C84.9399 102.619 84.6802 102.927 84.3589 103.221C84.0444 103.508 83.665 103.744 83.2207 103.928C82.7832 104.113 82.2773 104.205 81.7031 104.205C80.9785 104.205 80.3325 104.062 79.7651 103.774C79.1978 103.48 78.7534 103.087 78.4321 102.595C78.1108 102.096 77.9502 101.532 77.9502 100.903C77.9502 100.315 78.0596 99.7959 78.2783 99.3448C78.5039 98.8867 78.832 98.5039 79.2627 98.1963C79.7002 97.8887 80.2334 97.6563 80.8623 97.4991C81.4912 97.335 82.209 97.253 83.0156 97.253H84.9536ZM92.3057 88.25V104H89.8242V88.25H92.3057ZM101.268 101.775V96.4839C101.268 96.0874 101.196 95.7456 101.052 95.4585C100.909 95.1714 100.69 94.9492 100.396 94.792C100.109 94.6348 99.7466 94.5562 99.3091 94.5562C98.9058 94.5562 98.5571 94.6245 98.2632 94.7613C97.9692 94.898 97.7402 95.0826 97.5762 95.315C97.4121 95.5474 97.3301 95.8106 97.3301 96.1045H94.8691C94.8691 95.667 94.9751 95.2432 95.187 94.833C95.3989 94.4229 95.7065 94.0572 96.1099 93.7359C96.5132 93.4146 96.9951 93.1617 97.5557 92.9771C98.1162 92.7925 98.7451 92.7002 99.4424 92.7002C100.276 92.7002 101.015 92.8404 101.657 93.1206C102.307 93.4009 102.816 93.8247 103.185 94.3921C103.561 94.9527 103.749 95.6568 103.749 96.5044V101.437C103.749 101.942 103.783 102.397 103.852 102.8C103.927 103.197 104.033 103.542 104.169 103.836V104H101.637C101.521 103.733 101.428 103.395 101.36 102.985C101.298 102.568 101.268 102.165 101.268 101.775ZM101.626 97.253L101.647 98.7808H99.873C99.415 98.7808 99.0117 98.8252 98.6631 98.9141C98.3145 98.9961 98.0239 99.1192 97.7915 99.2832C97.5591 99.4473 97.3848 99.6455 97.2686 99.878C97.1523 100.11 97.0942 100.374 97.0942 100.668C97.0942 100.961 97.1626 101.231 97.2993 101.478C97.436 101.717 97.6343 101.905 97.894 102.042C98.1606 102.178 98.4819 102.247 98.8579 102.247C99.3638 102.247 99.8047 102.144 100.181 101.939C100.563 101.727 100.864 101.471 101.083 101.17C101.302 100.862 101.418 100.572 101.432 100.298L102.231 101.396C102.149 101.676 102.009 101.977 101.811 102.298C101.613 102.619 101.353 102.927 101.032 103.221C100.717 103.508 100.338 103.744 99.8936 103.928C99.4561 104.113 98.9502 104.205 98.376 104.205C97.6514 104.205 97.0054 104.062 96.438 103.774C95.8706 103.48 95.4263 103.087 95.105 102.595C94.7837 102.096 94.623 101.532 94.623 100.903C94.623 100.315 94.7324 99.7959 94.9512 99.3448C95.1768 98.8867 95.5049 98.5039 95.9355 98.1963C96.373 97.8887 96.9062 97.6563 97.5352 97.4991C98.1641 97.335 98.8818 97.253 99.6885 97.253H101.626ZM108.784 95.274V104H106.312V92.9053H108.64L108.784 95.274ZM108.343 98.0425L107.543 98.0323C107.55 97.2461 107.659 96.5249 107.871 95.8687C108.09 95.2124 108.391 94.6485 108.773 94.1768C109.163 93.7051 109.628 93.3428 110.168 93.0899C110.708 92.8301 111.31 92.7002 111.973 92.7002C112.506 92.7002 112.988 92.7754 113.418 92.9258C113.856 93.0694 114.229 93.3052 114.536 93.6333C114.851 93.9615 115.09 94.3887 115.254 94.9151C115.418 95.4346 115.5 96.0738 115.5 96.8326V104H113.019V96.8223C113.019 96.2891 112.94 95.8687 112.783 95.5611C112.632 95.2466 112.41 95.0244 112.116 94.8946C111.829 94.7578 111.47 94.6895 111.04 94.6895C110.616 94.6895 110.236 94.7784 109.901 94.9561C109.566 95.1338 109.283 95.3765 109.05 95.6841C108.825 95.9917 108.65 96.3472 108.527 96.7505C108.404 97.1538 108.343 97.5845 108.343 98.0425ZM122.555 102.236C122.958 102.236 123.32 102.158 123.642 102.001C123.97 101.836 124.233 101.611 124.431 101.324C124.636 101.037 124.749 100.705 124.77 100.329H127.097C127.083 101.047 126.872 101.7 126.461 102.288C126.051 102.876 125.508 103.344 124.831 103.692C124.154 104.034 123.406 104.205 122.585 104.205C121.738 104.205 121 104.062 120.371 103.774C119.742 103.48 119.219 103.077 118.802 102.564C118.385 102.052 118.07 101.46 117.858 100.791C117.653 100.121 117.551 99.4029 117.551 98.6372V98.2784C117.551 97.5127 117.653 96.795 117.858 96.125C118.07 95.4483 118.385 94.8535 118.802 94.3409C119.219 93.8282 119.742 93.4283 120.371 93.1411C121 92.8472 121.734 92.7002 122.575 92.7002C123.464 92.7002 124.243 92.878 124.913 93.2334C125.583 93.5821 126.109 94.0708 126.492 94.6997C126.882 95.3218 127.083 96.0464 127.097 96.8736H124.77C124.749 96.4634 124.646 96.0943 124.462 95.7661C124.284 95.4312 124.031 95.1646 123.703 94.9663C123.382 94.7681 122.996 94.669 122.544 94.669C122.045 94.669 121.632 94.7715 121.304 94.9766C120.976 95.1748 120.719 95.4483 120.535 95.7969C120.35 96.1387 120.217 96.5249 120.135 96.9556C120.06 97.3794 120.022 97.8203 120.022 98.2784V98.6372C120.022 99.0952 120.06 99.5396 120.135 99.9702C120.21 100.401 120.34 100.787 120.524 101.129C120.716 101.464 120.976 101.734 121.304 101.939C121.632 102.137 122.049 102.236 122.555 102.236ZM133.885 104.205C133.065 104.205 132.323 104.072 131.66 103.805C131.004 103.532 130.443 103.152 129.979 102.667C129.521 102.182 129.168 101.611 128.922 100.955C128.676 100.298 128.553 99.5909 128.553 98.8321V98.4219C128.553 97.5537 128.68 96.7676 128.933 96.0635C129.186 95.3594 129.538 94.7578 129.989 94.2588C130.44 93.753 130.973 93.3667 131.588 93.1001C132.204 92.8335 132.87 92.7002 133.588 92.7002C134.381 92.7002 135.075 92.8335 135.669 93.1001C136.264 93.3667 136.756 93.7427 137.146 94.2281C137.542 94.7066 137.836 95.2774 138.028 95.9405C138.226 96.6035 138.325 97.335 138.325 98.1348V99.1909H129.753V97.417H135.885V97.2222C135.871 96.7779 135.782 96.3609 135.618 95.9712C135.461 95.5816 135.218 95.2671 134.89 95.0279C134.562 94.7886 134.125 94.669 133.578 94.669C133.167 94.669 132.802 94.7578 132.48 94.9356C132.166 95.1065 131.903 95.356 131.691 95.6841C131.479 96.0122 131.315 96.4087 131.199 96.8736C131.089 97.3316 131.035 97.8477 131.035 98.4219V98.8321C131.035 99.3174 131.1 99.7686 131.229 100.186C131.366 100.596 131.564 100.955 131.824 101.262C132.084 101.57 132.398 101.813 132.768 101.99C133.137 102.161 133.557 102.247 134.029 102.247C134.624 102.247 135.153 102.127 135.618 101.888C136.083 101.648 136.486 101.31 136.828 100.873L138.13 102.134C137.891 102.482 137.58 102.817 137.197 103.139C136.814 103.453 136.346 103.71 135.792 103.908C135.246 104.106 134.61 104.205 133.885 104.205Z" fill="black"/>
<path d="M71.5 22.0763H52.75C50.4294 22.0763 48.2038 22.8208 46.5628 24.1461C44.9219 25.4714 44 27.2689 44 29.1431C44 31.0174 44.9219 32.8148 46.5628 34.1401C48.2038 35.4654 50.4294 36.2099 52.75 36.2099H65.25C67.5706 36.2099 69.7962 36.9545 71.4372 38.2798C73.0781 39.605 74 41.4025 74 43.2768C74 45.151 73.0781 46.9485 71.4372 48.2738C69.7962 49.599 67.5706 50.3436 65.25 50.3436H44" stroke="black" stroke-width="3" stroke-linecap="round" stroke-linejoin="round"/>
<path d="M59 14V58.42" stroke="black" stroke-width="3" stroke-linecap="round" stroke-linejoin="round"/>
<defs>
<linearGradient id="paint0_linear_8_19" x1="58.5" y1="0" x2="58.5" y2="70" gradientUnits="userSpaceOnUse">
<stop offset="0.259898" stop-color="white"/>
<stop offset="1" stop-color="white" stop-opacity="0"/>
</linearGradient>
</defs>
</svg>
