<svg width="68" height="57" viewBox="0 0 68 57" fill="none" xmlns="http://www.w3.org/2000/svg">
<ellipse cx="29.1999" cy="29.3028" rx="29.1999" ry="27.6972" fill="#C4C4C4"/>
<path d="M38.7998 24.6449C38.7998 21.9412 37.8726 19.3482 36.2223 17.4364C34.572 15.5245 32.3337 14.4505 29.9998 14.4505C27.6659 14.4505 25.4276 15.5245 23.7772 17.4364C22.1269 19.3482 21.1998 21.9412 21.1998 24.6449C21.1998 36.5383 16.7998 39.9365 16.7998 39.9365H43.1997C43.1997 39.9365 38.7998 36.5383 38.7998 24.6449Z" stroke="black" stroke-width="5" stroke-linecap="round" stroke-linejoin="round"/>
<path d="M32.5374 46.7329C32.2796 47.2479 31.9095 47.6753 31.4642 47.9724C31.0189 48.2696 30.514 48.426 30.0001 48.426C29.4862 48.426 28.9813 48.2696 28.536 47.9724C28.0907 47.6753 27.7206 47.2479 27.4628 46.7329" stroke="black" stroke-width="5" stroke-linecap="round" stroke-linejoin="round"/>
<path d="M63.9756 31.0293L63.3262 35H48.0557L48.6309 31.4004L57.0362 22.1416C57.5681 21.5231 58.1124 20.8675 58.669 20.1748C59.2256 19.4697 59.7081 18.7275 60.1163 17.9482C60.5368 17.1566 60.7966 16.3402 60.8956 15.499C60.9574 15.0166 60.9636 14.4661 60.9141 13.8477C60.8646 13.2292 60.6915 12.6973 60.3946 12.252C60.0977 11.7943 59.6153 11.5531 58.9473 11.5283C58.0938 11.5036 57.4135 11.751 56.9063 12.2705C56.3991 12.79 56.0157 13.4333 55.7559 14.2002C55.5085 14.9548 55.3477 15.6598 55.2735 16.3154L50.6719 16.3525C50.808 14.7692 51.2409 13.3096 51.9708 11.9736C52.713 10.6377 53.7087 9.56771 54.9581 8.76367C56.2074 7.94727 57.6732 7.55762 59.3555 7.59473C60.8152 7.61947 62.0398 7.95964 63.0294 8.61523C64.0313 9.25846 64.7611 10.1367 65.2188 11.25C65.6889 12.3633 65.8559 13.6312 65.7198 15.0537C65.6208 16.0928 65.3672 17.0824 64.959 18.0225C64.5632 18.9502 64.0746 19.8346 63.4932 20.6758C62.9118 21.5046 62.281 22.3086 61.6006 23.0879C60.9203 23.8548 60.24 24.6094 59.5596 25.3516L54.6983 31.0107L63.9756 31.0293Z" fill="#FF0000"/>
</svg>
