<svg width="57" height="69" viewBox="0 0 57 69" fill="none" xmlns="http://www.w3.org/2000/svg">
<path d="M28.9999 1H37C38.0609 1 39.0783 1.50337 39.8284 2.39938C40.5786 3.29539 41 4.51063 41 5.77778V39.2222C41 40.4894 40.5786 41.7046 39.8284 42.6006C39.0783 43.4966 38.0609 44 37 44H28.9999" stroke="#E71313" stroke-width="2" stroke-linecap="round" stroke-linejoin="round"/>
<path d="M18.9999 34.4442L29 22.4998L18.9999 10.5554" stroke="#E71313" stroke-width="2" stroke-linecap="round" stroke-linejoin="round"/>
<path d="M29.0002 22.5H5" stroke="#E71313" stroke-width="2" stroke-linecap="round" stroke-linejoin="round"/>
<path d="M8.521 61.7134L8.12109 64H2.0918L2.48145 61.7134H8.521ZM5.45508 49.0703L2.87109 64H0.194824L2.76855 49.0703H5.45508ZM10.3462 58.8628L10.4487 58.063C10.5308 57.3726 10.6948 56.7061 10.9409 56.0635C11.187 55.4141 11.5186 54.833 11.9355 54.3203C12.3525 53.8008 12.855 53.3975 13.4429 53.1104C14.0376 52.8164 14.7212 52.6797 15.4937 52.7002C16.2456 52.7139 16.8677 52.8779 17.3599 53.1924C17.8521 53.5068 18.2349 53.9204 18.5083 54.4331C18.7817 54.9458 18.9595 55.5166 19.0415 56.1455C19.1304 56.7744 19.1406 57.4102 19.0723 58.0527L18.98 58.8628C18.8979 59.5532 18.7305 60.2231 18.4775 60.8726C18.2314 61.5151 17.8999 62.0928 17.4829 62.6055C17.0659 63.1113 16.5635 63.5112 15.9756 63.8052C15.3877 64.0923 14.7075 64.2256 13.9351 64.2051C13.1831 64.1914 12.561 64.0273 12.0688 63.7129C11.5767 63.3984 11.1938 62.9849 10.9204 62.4722C10.647 61.9595 10.4658 61.3921 10.377 60.77C10.2949 60.1411 10.2847 59.5054 10.3462 58.8628ZM13.0225 58.0527L12.9404 58.8833C12.9131 59.1362 12.8926 59.4336 12.8789 59.7754C12.8652 60.1172 12.8892 60.459 12.9507 60.8008C13.0122 61.1426 13.1353 61.4263 13.3198 61.6519C13.5044 61.8774 13.7812 62.0005 14.1504 62.021C14.5674 62.0483 14.9126 61.9595 15.186 61.7544C15.4663 61.5493 15.6885 61.2827 15.8525 60.9546C16.0234 60.6196 16.1499 60.2676 16.2319 59.8984C16.3208 59.5225 16.3857 59.1738 16.4268 58.8525L16.5088 58.0322C16.5293 57.7861 16.543 57.4888 16.5498 57.1401C16.5635 56.7915 16.5396 56.4497 16.478 56.1147C16.4165 55.7798 16.2935 55.4961 16.1089 55.2637C15.9243 55.0312 15.6475 54.9048 15.2783 54.8843C14.875 54.8638 14.5366 54.9595 14.2632 55.1714C13.9966 55.3765 13.7778 55.6465 13.6069 55.9814C13.436 56.3096 13.3062 56.6616 13.2173 57.0376C13.1284 57.4067 13.0635 57.7451 13.0225 58.0527ZM27.5215 52.9053H29.8696L27.9829 64.0103C27.8599 64.9194 27.5864 65.7056 27.1626 66.3687C26.7388 67.0317 26.1816 67.5376 25.4912 67.8862C24.8008 68.2417 23.9839 68.4092 23.0405 68.3887C22.644 68.375 22.251 68.3135 21.8613 68.2041C21.4717 68.1016 21.0957 67.9512 20.7334 67.7529C20.3779 67.5547 20.0635 67.3188 19.79 67.0454L20.8872 65.2202C21.1606 65.5347 21.4819 65.7808 21.8511 65.9585C22.2271 66.1431 22.627 66.2422 23.0508 66.2559C23.5225 66.2695 23.9189 66.1841 24.2402 65.9995C24.5684 65.8149 24.8247 65.5552 25.0093 65.2202C25.2007 64.8921 25.3306 64.5059 25.3989 64.0615L26.8755 55.3149L27.5215 52.9053ZM20.4873 58.9346L20.5796 58.1348C20.6479 57.5059 20.7744 56.8701 20.959 56.2275C21.1504 55.5781 21.4136 54.9834 21.7485 54.4434C22.0835 53.8965 22.5107 53.4624 23.0303 53.1411C23.5498 52.8198 24.1855 52.6729 24.9375 52.7002C25.5938 52.7207 26.1099 52.9087 26.4858 53.2642C26.8618 53.6128 27.1353 54.0571 27.3062 54.5972C27.4771 55.1304 27.5796 55.6943 27.6138 56.2891C27.6479 56.877 27.6445 57.4238 27.6035 57.9297L27.46 59.0679C27.3643 59.5942 27.2173 60.1582 27.019 60.7598C26.8276 61.3613 26.5713 61.9287 26.25 62.4619C25.9287 62.9883 25.5322 63.4189 25.0605 63.7539C24.5957 64.082 24.0386 64.2393 23.3892 64.2256C22.6851 64.2051 22.1279 64.0273 21.7178 63.6924C21.3076 63.3506 21.0034 62.9131 20.8052 62.3799C20.6138 61.8398 20.4976 61.2656 20.4565 60.6572C20.4224 60.0488 20.4326 59.4746 20.4873 58.9346ZM23.1636 58.0732L23.0713 58.8936C23.0439 59.167 23.02 59.478 22.9995 59.8267C22.9858 60.1753 23.0063 60.5137 23.061 60.8418C23.1157 61.1631 23.2388 61.4331 23.4302 61.6519C23.6216 61.8638 23.9121 61.9766 24.3018 61.9902C24.7529 62.0107 25.1357 61.9014 25.4502 61.6621C25.7646 61.4229 26.0107 61.1187 26.1885 60.7495C26.3662 60.3735 26.4927 59.9907 26.5679 59.6011L26.8857 57.417C26.8994 57.1504 26.8926 56.877 26.8652 56.5967C26.8447 56.3164 26.7866 56.0498 26.6909 55.7969C26.6021 55.5439 26.4585 55.3389 26.2603 55.1816C26.062 55.0176 25.8022 54.9287 25.481 54.915C25.0503 54.8877 24.6914 54.9731 24.4043 55.1714C24.124 55.3696 23.8984 55.6328 23.7275 55.9609C23.5566 56.2822 23.4268 56.6309 23.3379 57.0068C23.2559 57.3828 23.1978 57.7383 23.1636 58.0732ZM30.7104 58.8628L30.813 58.063C30.895 57.3726 31.0591 56.7061 31.3052 56.0635C31.5513 55.4141 31.8828 54.833 32.2998 54.3203C32.7168 53.8008 33.2192 53.3975 33.8071 53.1104C34.4019 52.8164 35.0854 52.6797 35.8579 52.7002C36.6099 52.7139 37.2319 52.8779 37.7241 53.1924C38.2163 53.5068 38.5991 53.9204 38.8726 54.4331C39.146 54.9458 39.3237 55.5166 39.4058 56.1455C39.4946 56.7744 39.5049 57.4102 39.4365 58.0527L39.3442 58.8628C39.2622 59.5532 39.0947 60.2231 38.8418 60.8726C38.5957 61.5151 38.2642 62.0928 37.8472 62.6055C37.4302 63.1113 36.9277 63.5112 36.3398 63.8052C35.752 64.0923 35.0718 64.2256 34.2993 64.2051C33.5474 64.1914 32.9253 64.0273 32.4331 63.7129C31.9409 63.3984 31.5581 62.9849 31.2847 62.4722C31.0112 61.9595 30.8301 61.3921 30.7412 60.77C30.6592 60.1411 30.6489 59.5054 30.7104 58.8628ZM33.3867 58.0527L33.3047 58.8833C33.2773 59.1362 33.2568 59.4336 33.2432 59.7754C33.2295 60.1172 33.2534 60.459 33.3149 60.8008C33.3765 61.1426 33.4995 61.4263 33.6841 61.6519C33.8687 61.8774 34.1455 62.0005 34.5146 62.021C34.9316 62.0483 35.2769 61.9595 35.5503 61.7544C35.8306 61.5493 36.0527 61.2827 36.2168 60.9546C36.3877 60.6196 36.5142 60.2676 36.5962 59.8984C36.6851 59.5225 36.75 59.1738 36.791 58.8525L36.873 58.0322C36.8936 57.7861 36.9072 57.4888 36.9141 57.1401C36.9277 56.7915 36.9038 56.4497 36.8423 56.1147C36.7808 55.7798 36.6577 55.4961 36.4731 55.2637C36.2886 55.0312 36.0117 54.9048 35.6426 54.8843C35.2393 54.8638 34.9009 54.9595 34.6274 55.1714C34.3608 55.3765 34.1421 55.6465 33.9712 55.9814C33.8003 56.3096 33.6704 56.6616 33.5815 57.0376C33.4927 57.4067 33.4277 57.7451 33.3867 58.0527ZM46.0195 61.2212L47.4653 52.9053H50.0391L48.1113 64H45.7017L46.0195 61.2212ZM46.6553 59.0166L47.3218 58.9858C47.2603 59.5601 47.1543 60.1548 47.0039 60.77C46.8604 61.3853 46.645 61.9595 46.3579 62.4927C46.0708 63.019 45.688 63.4429 45.2095 63.7642C44.731 64.0854 44.1396 64.2358 43.4355 64.2153C42.8613 64.2017 42.3999 64.0718 42.0513 63.8257C41.7026 63.5728 41.4395 63.2446 41.2617 62.8413C41.0908 62.4312 40.9814 61.9868 40.9336 61.5083C40.8926 61.0229 40.8994 60.5444 40.9541 60.0728L42.1538 52.9053H44.7275L43.5278 60.1138C43.5142 60.2778 43.5039 60.4658 43.4971 60.6777C43.4971 60.8896 43.5176 61.0947 43.5586 61.293C43.5996 61.4844 43.6782 61.645 43.7944 61.7749C43.9175 61.9048 44.0986 61.9731 44.3379 61.98C44.8984 62.0142 45.3359 61.8774 45.6504 61.5698C45.9717 61.2554 46.2041 60.8623 46.3477 60.3906C46.498 59.9189 46.6006 59.4609 46.6553 59.0166ZM56.7349 52.9053L56.376 54.9048H50.9722L51.3413 52.9053H56.7349ZM53.1665 50.1777H55.7197L53.915 60.7905C53.8945 60.9683 53.8843 61.1426 53.8843 61.3135C53.8911 61.4844 53.9321 61.6279 54.0073 61.7441C54.0894 61.8604 54.2397 61.9219 54.4585 61.9287C54.5815 61.9287 54.7012 61.9219 54.8174 61.9082C54.9336 61.8877 55.0464 61.8706 55.1558 61.8569L54.9507 63.9487C54.7251 64.0376 54.4927 64.0991 54.2534 64.1333C54.021 64.1743 53.7817 64.1914 53.5356 64.1846C52.9272 64.1777 52.4556 64.0205 52.1206 63.7129C51.7856 63.3984 51.5601 63.002 51.4438 62.5234C51.3276 62.0381 51.2935 61.5288 51.3413 60.9956L53.1665 50.1777Z" fill="black"/>
</svg>
