<svg width="127" height="108" viewBox="0 0 127 108" fill="none" xmlns="http://www.w3.org/2000/svg">
<path d="M9.21387 90.7179V92.3698H2.79736V90.7179H9.21387ZM3.31201 85.6711V97.757H1.22852V85.6711H3.31201ZM10.8159 85.6711V97.757H8.74072V85.6711H10.8159ZM12.7168 93.3659V93.175C12.7168 92.5275 12.8109 91.9271 12.999 91.3737C13.1872 90.8148 13.4583 90.3306 13.8125 89.9211C14.1722 89.506 14.6094 89.1851 15.124 88.9582C15.6442 88.7258 16.2308 88.6096 16.8838 88.6096C17.5423 88.6096 18.1289 88.7258 18.6436 88.9582C19.1637 89.1851 19.6037 89.506 19.9634 89.9211C20.3231 90.3306 20.597 90.8148 20.7852 91.3737C20.9733 91.9271 21.0674 92.5275 21.0674 93.175V93.3659C21.0674 94.0134 20.9733 94.6138 20.7852 95.1672C20.597 95.7206 20.3231 96.2048 19.9634 96.6198C19.6037 97.0293 19.1665 97.3503 18.6519 97.5827C18.1372 97.8096 17.5534 97.923 16.9004 97.923C16.2419 97.923 15.6525 97.8096 15.1323 97.5827C14.6177 97.3503 14.1805 97.0293 13.8208 96.6198C13.4611 96.2048 13.1872 95.7206 12.999 95.1672C12.8109 94.6138 12.7168 94.0134 12.7168 93.3659ZM14.7173 93.175V93.3659C14.7173 93.7699 14.7588 94.1517 14.8418 94.5114C14.9248 94.8711 15.0549 95.1865 15.2319 95.4577C15.409 95.7289 15.6359 95.9419 15.9126 96.0969C16.1893 96.2518 16.5186 96.3293 16.9004 96.3293C17.2712 96.3293 17.5921 96.2518 17.8633 96.0969C18.14 95.9419 18.3669 95.7289 18.5439 95.4577C18.721 95.1865 18.8511 94.8711 18.9341 94.5114C19.0226 94.1517 19.0669 93.7699 19.0669 93.3659V93.175C19.0669 92.7765 19.0226 92.4002 18.9341 92.0461C18.8511 91.6864 18.7183 91.3682 18.5356 91.0915C18.3586 90.8148 18.1317 90.599 17.855 90.444C17.5838 90.2835 17.2601 90.2033 16.8838 90.2033C16.5075 90.2033 16.181 90.2835 15.9043 90.444C15.6331 90.599 15.409 90.8148 15.2319 91.0915C15.0549 91.3682 14.9248 91.6864 14.8418 92.0461C14.7588 92.4002 14.7173 92.7765 14.7173 93.175ZM24.7446 90.6017V97.757H22.7441V88.7756H24.6284L24.7446 90.6017ZM24.4209 92.9343L23.7402 92.926C23.7402 92.3062 23.8177 91.7334 23.9727 91.2077C24.1276 90.682 24.3545 90.2254 24.6533 89.8381C24.9521 89.4452 25.3229 89.1436 25.7656 88.9333C26.2139 88.7175 26.7313 88.6096 27.3179 88.6096C27.7274 88.6096 28.1009 88.6704 28.4385 88.7922C28.7816 88.9084 29.0776 89.0938 29.3267 89.3483C29.5812 89.6029 29.7749 89.9294 29.9077 90.3278C30.0461 90.7262 30.1152 91.2077 30.1152 91.7721V97.757H28.1147V91.9465C28.1147 91.5093 28.0483 91.1662 27.9155 90.9172C27.7882 90.6681 27.6029 90.4911 27.3594 90.3859C27.1214 90.2752 26.8364 90.2199 26.5044 90.2199C26.1281 90.2199 25.8071 90.2918 25.5415 90.4357C25.2814 90.5796 25.0684 90.7761 24.9023 91.0251C24.7363 91.2741 24.6146 91.5619 24.5371 91.8884C24.4596 92.2149 24.4209 92.5635 24.4209 92.9343ZM29.9907 92.403L29.0527 92.6105C29.0527 92.0682 29.1274 91.5563 29.2769 91.0749C29.4318 90.5879 29.6559 90.1618 29.9492 89.7966C30.248 89.4258 30.616 89.1353 31.0532 88.925C31.4904 88.7147 31.9912 88.6096 32.5557 88.6096C33.015 88.6096 33.4245 88.6732 33.7842 88.8005C34.1494 88.9222 34.4593 89.1159 34.7139 89.3815C34.9684 89.6471 35.1621 89.993 35.2949 90.4191C35.4277 90.8397 35.4941 91.3488 35.4941 91.9465V97.757H33.4854V91.9382C33.4854 91.4844 33.4189 91.133 33.2861 90.884C33.1589 90.6349 32.9762 90.4634 32.7383 90.3693C32.5003 90.2697 32.2153 90.2199 31.8833 90.2199C31.5734 90.2199 31.2995 90.278 31.0615 90.3942C30.8291 90.5049 30.6326 90.6626 30.4722 90.8674C30.3117 91.0666 30.1899 91.2962 30.1069 91.5563C30.0295 91.8164 29.9907 92.0986 29.9907 92.403ZM41.5122 97.923C40.8481 97.923 40.2477 97.8151 39.7109 97.5993C39.1797 97.3779 38.7259 97.0708 38.3496 96.6779C37.9788 96.285 37.6938 95.8229 37.4946 95.2917C37.2954 94.7604 37.1958 94.1877 37.1958 93.5734V93.2414C37.1958 92.5386 37.2982 91.9022 37.5029 91.3322C37.7077 90.7622 37.9927 90.2752 38.3579 89.8713C38.7231 89.4618 39.1548 89.1491 39.6528 88.9333C40.1509 88.7175 40.6904 88.6096 41.2715 88.6096C41.9134 88.6096 42.4751 88.7175 42.9565 88.9333C43.438 89.1491 43.8364 89.4535 44.1519 89.8464C44.4728 90.2337 44.7108 90.6958 44.8657 91.2326C45.0262 91.7694 45.1064 92.3615 45.1064 93.009V93.8639H38.167V92.4279H43.1309V92.2702C43.1198 91.9105 43.0479 91.5729 42.915 91.2575C42.7878 90.9421 42.5913 90.6875 42.3257 90.4938C42.0601 90.3001 41.7059 90.2033 41.2632 90.2033C40.9312 90.2033 40.6351 90.2752 40.375 90.4191C40.1204 90.5575 39.9074 90.7595 39.7358 91.0251C39.5643 91.2907 39.4315 91.6117 39.3374 91.988C39.2489 92.3587 39.2046 92.7765 39.2046 93.2414V93.5734C39.2046 93.9663 39.2572 94.3316 39.3623 94.6691C39.473 95.0012 39.6335 95.2917 39.8438 95.5407C40.054 95.7897 40.3086 95.9862 40.6074 96.1301C40.9062 96.2684 41.2466 96.3376 41.6284 96.3376C42.1099 96.3376 42.5387 96.2407 42.915 96.0471C43.2913 95.8534 43.6178 95.5794 43.8945 95.2253L44.9487 96.2463C44.755 96.5285 44.5033 96.7997 44.1934 97.0597C43.8835 97.3143 43.5044 97.5218 43.0562 97.6823C42.6134 97.8428 42.0988 97.923 41.5122 97.923ZM53.3242 85.6711V97.757H51.2407V85.6711H53.3242ZM57.6987 90.693V97.757H55.6982V88.7756H57.5825L57.6987 90.693ZM57.3418 92.9343L56.6943 92.926C56.6999 92.2896 56.7884 91.7057 56.96 91.1745C57.137 90.6432 57.3805 90.1867 57.6904 89.8049C58.0059 89.423 58.3822 89.1297 58.8193 88.925C59.2565 88.7147 59.7435 88.6096 60.2803 88.6096C60.7119 88.6096 61.1021 88.6704 61.4507 88.7922C61.8049 88.9084 62.1064 89.0993 62.3555 89.3649C62.61 89.6305 62.8037 89.9764 62.9365 90.4025C63.0693 90.8231 63.1357 91.3405 63.1357 91.9548V97.757H61.127V91.9465C61.127 91.5148 61.0633 91.1745 60.936 90.9255C60.8143 90.6709 60.6344 90.4911 60.3965 90.3859C60.1641 90.2752 59.8735 90.2199 59.5249 90.2199C59.1818 90.2199 58.8747 90.2918 58.6035 90.4357C58.3324 90.5796 58.1027 90.7761 57.9146 91.0251C57.7319 91.2741 57.5908 91.5619 57.4912 91.8884C57.3916 92.2149 57.3418 92.5635 57.3418 92.9343ZM70.2163 95.3249C70.2163 95.1257 70.1665 94.9458 70.0669 94.7853C69.9673 94.6193 69.7764 94.4699 69.4941 94.3371C69.2174 94.2043 68.8079 94.0825 68.2656 93.9719C67.7897 93.8667 67.3525 93.7422 66.9541 93.5983C66.5612 93.4489 66.2236 93.2691 65.9414 93.0588C65.6592 92.8485 65.4406 92.5995 65.2856 92.3117C65.1307 92.0239 65.0532 91.6919 65.0532 91.3156C65.0532 90.9504 65.1335 90.6045 65.2939 90.278C65.4544 89.9515 65.6841 89.6637 65.9829 89.4147C66.2817 89.1657 66.6442 88.9693 67.0703 88.8254C67.502 88.6815 67.9834 88.6096 68.5146 88.6096C69.2673 88.6096 69.9119 88.7368 70.4487 88.9914C70.991 89.2404 71.4061 89.5807 71.6938 90.0124C71.9816 90.4385 72.1255 90.9199 72.1255 91.4567H70.125C70.125 91.2188 70.0641 90.9974 69.9424 90.7927C69.8262 90.5824 69.6491 90.4136 69.4111 90.2863C69.1732 90.1535 68.8743 90.0871 68.5146 90.0871C68.1715 90.0871 67.8866 90.1424 67.6597 90.2531C67.4383 90.3582 67.2723 90.4966 67.1616 90.6681C67.0565 90.8397 67.0039 91.0278 67.0039 91.2326C67.0039 91.382 67.0316 91.5176 67.0869 91.6393C67.1478 91.7555 67.2474 91.8635 67.3857 91.9631C67.5241 92.0571 67.7122 92.1457 67.9502 92.2287C68.1937 92.3117 68.498 92.3919 68.8633 92.4694C69.5495 92.6133 70.1388 92.7987 70.6313 93.0256C71.1294 93.2469 71.5112 93.5347 71.7769 93.8888C72.0425 94.2375 72.1753 94.6802 72.1753 95.217C72.1753 95.6154 72.0895 95.9806 71.918 96.3127C71.752 96.6392 71.5085 96.9242 71.1875 97.1677C70.8665 97.4056 70.4819 97.591 70.0337 97.7238C69.591 97.8566 69.0929 97.923 68.5396 97.923C67.7261 97.923 67.0371 97.7791 66.4727 97.4914C65.9082 97.1981 65.4793 96.8246 65.186 96.3708C64.8983 95.9115 64.7544 95.4356 64.7544 94.943H66.6885C66.7106 95.3138 66.813 95.6099 66.9956 95.8312C67.1838 96.0471 67.4162 96.2048 67.6929 96.3044C67.9751 96.3985 68.2656 96.4455 68.5645 96.4455C68.9242 96.4455 69.2257 96.3985 69.4692 96.3044C69.7127 96.2048 69.8981 96.072 70.0254 95.9059C70.1527 95.7344 70.2163 95.5407 70.2163 95.3249ZM79.3306 95.6403V88.7756H81.3394V97.757H79.4468L79.3306 95.6403ZM79.6128 93.7726L80.2852 93.756C80.2852 94.3592 80.2188 94.9154 80.0859 95.4245C79.9531 95.9281 79.7484 96.368 79.4717 96.7443C79.195 97.1151 78.8408 97.4056 78.4092 97.6159C77.9775 97.8207 77.4601 97.923 76.8569 97.923C76.4198 97.923 76.0186 97.8594 75.6533 97.7321C75.2881 97.6048 74.9727 97.4084 74.707 97.1428C74.4469 96.8771 74.245 96.5313 74.1011 96.1052C73.9572 95.679 73.8853 95.1699 73.8853 94.5778V88.7756H75.8857V94.5944C75.8857 94.9209 75.9245 95.1948 76.002 95.4162C76.0794 95.632 76.1846 95.8063 76.3174 95.9391C76.4502 96.072 76.6051 96.166 76.7822 96.2214C76.9593 96.2767 77.1475 96.3044 77.3467 96.3044C77.9167 96.3044 78.3649 96.1937 78.6914 95.9723C79.0234 95.7455 79.2586 95.4411 79.397 95.0593C79.5409 94.6774 79.6128 94.2485 79.6128 93.7726ZM85.3984 90.4855V97.757H83.3979V88.7756H85.3071L85.3984 90.4855ZM88.146 88.7175L88.1294 90.5768C88.0076 90.5547 87.8748 90.5381 87.731 90.527C87.5926 90.516 87.4543 90.5104 87.3159 90.5104C86.9728 90.5104 86.6712 90.5602 86.4111 90.6598C86.151 90.7539 85.9325 90.8923 85.7554 91.0749C85.5838 91.252 85.451 91.4678 85.3569 91.7223C85.2629 91.9769 85.2075 92.2619 85.1909 92.5773L84.7344 92.6105C84.7344 92.0461 84.7897 91.5231 84.9004 91.0417C85.0111 90.5602 85.1771 90.1369 85.3984 89.7717C85.6253 89.4064 85.9076 89.1214 86.2451 88.9167C86.5882 88.7119 86.9839 88.6096 87.4321 88.6096C87.5539 88.6096 87.6839 88.6206 87.8223 88.6428C87.9661 88.6649 88.0741 88.6898 88.146 88.7175ZM94.1641 95.9557V91.6725C94.1641 91.3516 94.106 91.0749 93.9897 90.8425C93.8735 90.61 93.6965 90.4302 93.4585 90.3029C93.2261 90.1756 92.9328 90.112 92.5786 90.112C92.2521 90.112 91.9699 90.1673 91.7319 90.278C91.494 90.3887 91.3086 90.5381 91.1758 90.7262C91.043 90.9144 90.9766 91.1275 90.9766 91.3654H88.9844C88.9844 91.0112 89.0701 90.6681 89.2417 90.3361C89.4132 90.0041 89.6623 89.708 89.9888 89.4479C90.3153 89.1878 90.7054 88.9831 91.1592 88.8337C91.613 88.6843 92.1221 88.6096 92.6865 88.6096C93.3617 88.6096 93.9593 88.723 94.4795 88.9499C95.0052 89.1768 95.4175 89.5199 95.7163 89.9792C96.0207 90.433 96.1729 91.0029 96.1729 91.6891V95.6818C96.1729 96.0913 96.2005 96.4593 96.2559 96.7858C96.3167 97.1068 96.4025 97.3862 96.5132 97.6242V97.757H94.4629C94.3688 97.5412 94.2941 97.2673 94.2388 96.9352C94.189 96.5977 94.1641 96.2712 94.1641 95.9557ZM94.4546 92.2951L94.4712 93.5319H93.0352C92.6644 93.5319 92.3379 93.5679 92.0557 93.6398C91.7734 93.7062 91.5382 93.8058 91.3501 93.9387C91.1619 94.0715 91.0208 94.2319 90.9268 94.4201C90.8327 94.6082 90.7856 94.8213 90.7856 95.0593C90.7856 95.2972 90.841 95.5158 90.9517 95.715C91.0623 95.9087 91.2228 96.0609 91.4331 96.1716C91.6489 96.2822 91.909 96.3376 92.2134 96.3376C92.6229 96.3376 92.9798 96.2546 93.2842 96.0886C93.5941 95.917 93.8376 95.7095 94.0146 95.466C94.1917 95.217 94.2858 94.9818 94.2969 94.7604L94.9443 95.6486C94.8779 95.8755 94.7645 96.119 94.604 96.3791C94.4435 96.6392 94.2332 96.8882 93.9731 97.1262C93.7186 97.3586 93.4115 97.5495 93.0518 97.6989C92.6976 97.8483 92.2881 97.923 91.8232 97.923C91.2367 97.923 90.7137 97.8068 90.2544 97.5744C89.7951 97.3364 89.4354 97.0182 89.1753 96.6198C88.9152 96.2158 88.7852 95.7593 88.7852 95.2502C88.7852 94.7743 88.8737 94.3537 89.0508 93.9885C89.2334 93.6177 89.499 93.3078 89.8477 93.0588C90.2018 92.8097 90.6335 92.6216 91.1426 92.4943C91.6517 92.3615 92.2327 92.2951 92.8857 92.2951H94.4546ZM100.249 90.693V97.757H98.248V88.7756H100.132L100.249 90.693ZM99.8916 92.9343L99.2441 92.926C99.2497 92.2896 99.3382 91.7057 99.5098 91.1745C99.6868 90.6432 99.9303 90.1867 100.24 89.8049C100.556 89.423 100.932 89.1297 101.369 88.925C101.806 88.7147 102.293 88.6096 102.83 88.6096C103.262 88.6096 103.652 88.6704 104 88.7922C104.355 88.9084 104.656 89.0993 104.905 89.3649C105.16 89.6305 105.354 89.9764 105.486 90.4025C105.619 90.8231 105.686 91.3405 105.686 91.9548V97.757H103.677V91.9465C103.677 91.5148 103.613 91.1745 103.486 90.9255C103.364 90.6709 103.184 90.4911 102.946 90.3859C102.714 90.2752 102.423 90.2199 102.075 90.2199C101.732 90.2199 101.424 90.2918 101.153 90.4357C100.882 90.5796 100.653 90.7761 100.464 91.0251C100.282 91.2741 100.141 91.5619 100.041 91.8884C99.9414 92.2149 99.8916 92.5635 99.8916 92.9343ZM111.396 96.3293C111.723 96.3293 112.016 96.2656 112.276 96.1384C112.542 96.0055 112.755 95.8229 112.916 95.5905C113.082 95.3581 113.173 95.0897 113.189 94.7853H115.074C115.063 95.3664 114.891 95.8949 114.559 96.3708C114.227 96.8467 113.787 97.2258 113.239 97.508C112.691 97.7847 112.085 97.923 111.421 97.923C110.735 97.923 110.138 97.8068 109.628 97.5744C109.119 97.3364 108.696 97.0099 108.358 96.5949C108.021 96.1799 107.766 95.7012 107.595 95.1589C107.429 94.6165 107.346 94.0355 107.346 93.4157V93.1252C107.346 92.5054 107.429 91.9243 107.595 91.382C107.766 90.8342 108.021 90.3527 108.358 89.9377C108.696 89.5226 109.119 89.1989 109.628 88.9665C110.138 88.7285 110.732 88.6096 111.413 88.6096C112.132 88.6096 112.763 88.7534 113.306 89.0412C113.848 89.3234 114.274 89.7191 114.584 90.2282C114.899 90.7318 115.063 91.3184 115.074 91.988H113.189C113.173 91.6559 113.09 91.3571 112.94 91.0915C112.797 90.8203 112.592 90.6045 112.326 90.444C112.066 90.2835 111.753 90.2033 111.388 90.2033C110.984 90.2033 110.649 90.2863 110.384 90.4523C110.118 90.6128 109.911 90.8342 109.761 91.1164C109.612 91.3931 109.504 91.7057 109.438 92.0544C109.377 92.3975 109.346 92.7544 109.346 93.1252V93.4157C109.346 93.7865 109.377 94.1462 109.438 94.4948C109.498 94.8434 109.604 95.1561 109.753 95.4328C109.908 95.704 110.118 95.9225 110.384 96.0886C110.649 96.249 110.987 96.3293 111.396 96.3293ZM120.569 97.923C119.905 97.923 119.304 97.8151 118.768 97.5993C118.236 97.3779 117.783 97.0708 117.406 96.6779C117.035 96.285 116.75 95.8229 116.551 95.2917C116.352 94.7604 116.252 94.1877 116.252 93.5734V93.2414C116.252 92.5386 116.355 91.9022 116.56 91.3322C116.764 90.7622 117.049 90.2752 117.415 89.8713C117.78 89.4618 118.211 89.1491 118.709 88.9333C119.208 88.7175 119.747 88.6096 120.328 88.6096C120.97 88.6096 121.532 88.7175 122.013 88.9333C122.495 89.1491 122.893 89.4535 123.208 89.8464C123.529 90.2337 123.767 90.6958 123.922 91.2326C124.083 91.7694 124.163 92.3615 124.163 93.009V93.8639H117.224V92.4279H122.188V92.2702C122.176 91.9105 122.104 91.5729 121.972 91.2575C121.844 90.9421 121.648 90.6875 121.382 90.4938C121.117 90.3001 120.763 90.2033 120.32 90.2033C119.988 90.2033 119.692 90.2752 119.432 90.4191C119.177 90.5575 118.964 90.7595 118.792 91.0251C118.621 91.2907 118.488 91.6117 118.394 91.988C118.306 92.3587 118.261 92.7765 118.261 93.2414V93.5734C118.261 93.9663 118.314 94.3316 118.419 94.6691C118.53 95.0012 118.69 95.2917 118.9 95.5407C119.111 95.7897 119.365 95.9862 119.664 96.1301C119.963 96.2684 120.303 96.3376 120.685 96.3376C121.167 96.3376 121.595 96.2407 121.972 96.0471C122.348 95.8534 122.674 95.5794 122.951 95.2253L124.005 96.2463C123.812 96.5285 123.56 96.7997 123.25 97.0597C122.94 97.3143 122.561 97.5218 122.113 97.6823C121.67 97.8428 121.155 97.923 120.569 97.923Z" fill="black"/>
<path d="M94.4764 29.4913L63.3676 2.45398L61.2824 0.640755C60.8073 0.230341 60.1648 0 59.4951 0C58.8255 0 58.1829 0.230341 57.7078 0.640755L24.5139 29.4913C24.0271 29.913 23.6423 30.4152 23.3824 30.9683C23.1224 31.5214 22.9925 32.1142 23.0003 32.7117C23.0325 35.176 25.3915 37.1432 28.2254 37.1432H31.647V59.945H87.3433V37.1432H90.8374C92.2141 37.1432 93.5103 36.6742 94.4844 35.8271C94.9641 35.4113 95.3442 34.9169 95.6026 34.3725C95.861 33.8282 95.9927 33.2446 95.99 32.6557C95.99 31.4655 95.4505 30.3384 94.4764 29.4913ZM64.0037 54.9044H54.9866V40.6227H64.0037V54.9044ZM81.5466 32.1026V54.9044H69.1562V38.9425C69.1562 37.3953 67.7151 36.1421 65.9359 36.1421H53.0544C51.2752 36.1421 49.834 37.3953 49.834 38.9425V54.9044H37.4437V32.1026H29.7148L59.5032 6.22044L61.363 7.83764L89.2835 32.1026H81.5466Z" fill="url(#paint0_radial_21_158)" fill-opacity="0.7"/>
<defs>
<radialGradient id="paint0_radial_21_158" cx="0" cy="0" r="1" gradientUnits="userSpaceOnUse" gradientTransform="translate(41.2475 44.8689) rotate(-5.93336) scale(69.2883 99.0034)">
<stop offset="0.41494" stop-color="#392DC5"/>
<stop offset="1" stop-color="#DC6B19" stop-opacity="0"/>
</radialGradient>
</defs>
</svg>
