<svg width="51" height="80" viewBox="0 0 51 80" fill="none" xmlns="http://www.w3.org/2000/svg">
<path d="M7.0752 63.9141H8.93457L12.4292 73.2358L15.9155 63.9141H17.7749L13.1597 76H11.6821L7.0752 63.9141ZM6.22852 63.9141H7.99658L8.30371 71.9824V76H6.22852V63.9141ZM16.8535 63.9141H18.6299V76H16.5464V71.9824L16.8535 63.9141ZM20.5225 71.6089V71.418C20.5225 70.7705 20.6165 70.1701 20.8047 69.6167C20.9928 69.0578 21.264 68.5736 21.6182 68.1641C21.9779 67.749 22.415 67.4281 22.9297 67.2012C23.4499 66.9688 24.0365 66.8525 24.6895 66.8525C25.348 66.8525 25.9346 66.9688 26.4492 67.2012C26.9694 67.4281 27.4093 67.749 27.769 68.1641C28.1287 68.5736 28.4027 69.0578 28.5908 69.6167C28.779 70.1701 28.873 70.7705 28.873 71.418V71.6089C28.873 72.2563 28.779 72.8568 28.5908 73.4102C28.4027 73.9635 28.1287 74.4478 27.769 74.8628C27.4093 75.2723 26.9722 75.5933 26.4575 75.8257C25.9429 76.0526 25.359 76.166 24.7061 76.166C24.0475 76.166 23.4582 76.0526 22.938 75.8257C22.4233 75.5933 21.9862 75.2723 21.6265 74.8628C21.2668 74.4478 20.9928 73.9635 20.8047 73.4102C20.6165 72.8568 20.5225 72.2563 20.5225 71.6089ZM22.5229 71.418V71.6089C22.5229 72.0129 22.5645 72.3947 22.6475 72.7544C22.7305 73.1141 22.8605 73.4295 23.0376 73.7007C23.2147 73.9718 23.4416 74.1849 23.7183 74.3398C23.995 74.4948 24.3242 74.5723 24.7061 74.5723C25.0768 74.5723 25.3978 74.4948 25.6689 74.3398C25.9456 74.1849 26.1725 73.9718 26.3496 73.7007C26.5267 73.4295 26.6567 73.1141 26.7397 72.7544C26.8283 72.3947 26.8726 72.0129 26.8726 71.6089V71.418C26.8726 71.0195 26.8283 70.6432 26.7397 70.2891C26.6567 69.9294 26.5239 69.6112 26.3413 69.3345C26.1642 69.0578 25.9373 68.842 25.6606 68.687C25.3895 68.5265 25.0658 68.4463 24.6895 68.4463C24.3132 68.4463 23.9867 68.5265 23.71 68.687C23.4388 68.842 23.2147 69.0578 23.0376 69.3345C22.8605 69.6112 22.7305 69.9294 22.6475 70.2891C22.5645 70.6432 22.5229 71.0195 22.5229 71.418ZM32.5586 68.7285V76H30.5581V67.0186H32.4673L32.5586 68.7285ZM35.3062 66.9604L35.2896 68.8198C35.1678 68.7977 35.035 68.7811 34.8911 68.77C34.7528 68.759 34.6144 68.7534 34.4761 68.7534C34.133 68.7534 33.8314 68.8032 33.5713 68.9028C33.3112 68.9969 33.0926 69.1353 32.9155 69.3179C32.744 69.495 32.6112 69.7108 32.5171 69.9653C32.423 70.2199 32.3677 70.5049 32.3511 70.8203L31.8945 70.8535C31.8945 70.2891 31.9499 69.7661 32.0605 69.2847C32.1712 68.8032 32.3372 68.3799 32.5586 68.0146C32.7855 67.6494 33.0677 67.3644 33.4053 67.1597C33.7484 66.9549 34.144 66.8525 34.5923 66.8525C34.714 66.8525 34.8441 66.8636 34.9824 66.8857C35.1263 66.9079 35.2342 66.9328 35.3062 66.9604ZM40.353 76.166C39.689 76.166 39.0885 76.0581 38.5518 75.8423C38.0205 75.6209 37.5667 75.3138 37.1904 74.9209C36.8197 74.528 36.5347 74.0659 36.3354 73.5347C36.1362 73.0034 36.0366 72.4307 36.0366 71.8164V71.4844C36.0366 70.7816 36.139 70.1452 36.3438 69.5752C36.5485 69.0052 36.8335 68.5182 37.1987 68.1143C37.564 67.7048 37.9956 67.3921 38.4937 67.1763C38.9917 66.9604 39.5312 66.8525 40.1123 66.8525C40.7542 66.8525 41.3159 66.9604 41.7974 67.1763C42.2788 67.3921 42.6772 67.6965 42.9927 68.0894C43.3136 68.4767 43.5516 68.9388 43.7065 69.4756C43.867 70.0124 43.9473 70.6045 43.9473 71.252V72.1069H37.0078V70.6709H41.9717V70.5132C41.9606 70.1535 41.8887 69.8159 41.7559 69.5005C41.6286 69.1851 41.4321 68.9305 41.1665 68.7368C40.9009 68.5431 40.5467 68.4463 40.104 68.4463C39.772 68.4463 39.4759 68.5182 39.2158 68.6621C38.9613 68.8005 38.7482 69.0024 38.5767 69.2681C38.4051 69.5337 38.2723 69.8547 38.1782 70.231C38.0897 70.6017 38.0454 71.0195 38.0454 71.4844V71.8164C38.0454 72.2093 38.098 72.5745 38.2031 72.9121C38.3138 73.2441 38.4743 73.5347 38.6846 73.7837C38.8949 74.0327 39.1494 74.2292 39.4482 74.373C39.7471 74.5114 40.0874 74.5806 40.4692 74.5806C40.9507 74.5806 41.3796 74.4837 41.7559 74.29C42.1322 74.0964 42.4587 73.8224 42.7354 73.4683L43.7896 74.4893C43.5959 74.7715 43.3441 75.0426 43.0342 75.3027C42.7243 75.5573 42.3452 75.7648 41.897 75.9253C41.4543 76.0858 40.9396 76.166 40.353 76.166Z" fill="black"/>
<path d="M25.265 16.19C26.9401 16.19 28.2981 12.7896 28.2981 8.595C28.2981 4.4004 26.9401 1 25.265 1C23.5898 1 22.2319 4.4004 22.2319 8.595C22.2319 12.7896 23.5898 16.19 25.265 16.19Z" stroke="black" stroke-width="1.5" stroke-linecap="round" stroke-linejoin="round"/>
<path d="M46.4969 16.19C48.172 16.19 49.53 12.7896 49.53 8.595C49.53 4.4004 48.172 1 46.4969 1C44.8217 1 43.4637 4.4004 43.4637 8.595C43.4637 12.7896 44.8217 16.19 46.4969 16.19Z" stroke="black" stroke-width="1.5" stroke-linecap="round" stroke-linejoin="round"/>
<path d="M4.03312 16.19C5.70827 16.19 7.06625 12.7896 7.06625 8.595C7.06625 4.4004 5.70827 1 4.03312 1C2.35798 1 1 4.4004 1 8.595C1 12.7896 2.35798 16.19 4.03312 16.19Z" stroke="black" stroke-width="1.5" stroke-linecap="round" stroke-linejoin="round"/>
</svg>
