<svg width="35" height="14" viewBox="0 0 35 14" fill="none" xmlns="http://www.w3.org/2000/svg">
<path d="M17.3983 12.7305C18.5212 12.7305 19.4315 10.0017 19.4315 6.63553C19.4315 3.26935 18.5212 0.540527 17.3983 0.540527C16.2755 0.540527 15.3652 3.26935 15.3652 6.63553C15.3652 10.0017 16.2755 12.7305 17.3983 12.7305Z" stroke="black" stroke-linecap="round" stroke-linejoin="round"/>
<path d="M31.6302 12.7305C32.7531 12.7305 33.6633 10.0017 33.6633 6.63553C33.6633 3.26935 32.7531 0.540527 31.6302 0.540527C30.5073 0.540527 29.5971 3.26935 29.5971 6.63553C29.5971 10.0017 30.5073 12.7305 31.6302 12.7305Z" stroke="black" stroke-linecap="round" stroke-linejoin="round"/>
<path d="M3.16646 12.7305C4.28932 12.7305 5.19958 10.0017 5.19958 6.63553C5.19958 3.26935 4.28932 0.540527 3.16646 0.540527C2.04359 0.540527 1.13333 3.26935 1.13333 6.63553C1.13333 10.0017 2.04359 12.7305 3.16646 12.7305Z" stroke="black" stroke-linecap="round" stroke-linejoin="round"/>
</svg>
