<svg width="120" height="116" viewBox="0 0 120 116" fill="none" xmlns="http://www.w3.org/2000/svg">
<path d="M8.38403 101.995C8.38403 101.746 8.3453 101.524 8.26782 101.331C8.19588 101.137 8.06584 100.96 7.87769 100.8C7.68953 100.639 7.42391 100.484 7.08081 100.335C6.74325 100.18 6.3116 100.022 5.78589 99.8616C5.21037 99.6845 4.67912 99.488 4.19214 99.2722C3.71069 99.0509 3.29012 98.7963 2.93042 98.5085C2.57072 98.2153 2.29126 97.8805 2.09204 97.5042C1.89282 97.1223 1.79321 96.6824 1.79321 96.1843C1.79321 95.6918 1.89559 95.2436 2.10034 94.8396C2.31063 94.4356 2.60669 94.087 2.98853 93.7937C3.3759 93.4949 3.83244 93.2652 4.35815 93.1047C4.88387 92.9387 5.46493 92.8557 6.10132 92.8557C6.9978 92.8557 7.76978 93.0217 8.41724 93.3538C9.07023 93.6858 9.57104 94.1313 9.91968 94.6902C10.2738 95.2491 10.4509 95.8661 10.4509 96.5413H8.38403C8.38403 96.1428 8.29826 95.7914 8.12671 95.4871C7.96069 95.1772 7.70614 94.9337 7.36304 94.7566C7.02547 94.5795 6.5966 94.491 6.07642 94.491C5.5839 94.491 5.1744 94.5657 4.8479 94.7151C4.5214 94.8645 4.27791 95.0665 4.11743 95.321C3.95695 95.5756 3.87671 95.8634 3.87671 96.1843C3.87671 96.4112 3.92928 96.6187 4.03442 96.8069C4.13957 96.9895 4.30005 97.1611 4.51587 97.3215C4.73169 97.4765 5.00285 97.6231 5.32935 97.7615C5.65584 97.8998 6.04045 98.0326 6.48315 98.1599C7.15275 98.3591 7.73657 98.5805 8.23462 98.824C8.73267 99.0619 9.14771 99.3331 9.47974 99.6375C9.81177 99.9418 10.0608 100.288 10.2268 100.675C10.3928 101.057 10.4758 101.491 10.4758 101.978C10.4758 102.487 10.3735 102.947 10.1687 103.356C9.96395 103.76 9.67065 104.106 9.28882 104.394C8.91252 104.676 8.45874 104.895 7.92749 105.05C7.40177 105.199 6.81519 105.274 6.16772 105.274C5.58667 105.274 5.01392 105.196 4.44946 105.041C3.89054 104.886 3.38143 104.651 2.92212 104.336C2.46281 104.015 2.09757 103.616 1.82642 103.14C1.55526 102.659 1.41968 102.097 1.41968 101.455H3.50317C3.50317 101.848 3.56958 102.183 3.70239 102.46C3.84074 102.736 4.03166 102.963 4.27515 103.14C4.51864 103.312 4.80086 103.439 5.12183 103.522C5.44832 103.605 5.79696 103.647 6.16772 103.647C6.6547 103.647 7.06144 103.578 7.38794 103.439C7.71997 103.301 7.96899 103.107 8.13501 102.858C8.30103 102.609 8.38403 102.321 8.38403 101.995ZM17.5232 102.991V96.1262H19.532V105.108H17.6394L17.5232 102.991ZM17.8054 101.123L18.4778 101.107C18.4778 101.71 18.4114 102.266 18.2786 102.775C18.1458 103.279 17.941 103.719 17.6643 104.095C17.3876 104.466 17.0334 104.756 16.6018 104.967C16.1702 105.171 15.6528 105.274 15.0496 105.274C14.6124 105.274 14.2112 105.21 13.8459 105.083C13.4807 104.955 13.1653 104.759 12.8997 104.493C12.6396 104.228 12.4376 103.882 12.2937 103.456C12.1498 103.03 12.0779 102.521 12.0779 101.928V96.1262H14.0784V101.945C14.0784 102.272 14.1171 102.545 14.1946 102.767C14.2721 102.983 14.3772 103.157 14.51 103.29C14.6428 103.423 14.7978 103.517 14.9749 103.572C15.1519 103.627 15.3401 103.655 15.5393 103.655C16.1093 103.655 16.5575 103.544 16.884 103.323C17.2161 103.096 17.4513 102.792 17.5896 102.41C17.7335 102.028 17.8054 101.599 17.8054 101.123ZM21.5906 92.3577H23.5911V103.19L23.4001 105.108H21.5906V92.3577ZM29.4514 100.534V100.708C29.4514 101.372 29.3767 101.984 29.2273 102.543C29.0834 103.096 28.8621 103.578 28.5632 103.987C28.2699 104.397 27.9047 104.715 27.4675 104.942C27.0359 105.163 26.5351 105.274 25.9651 105.274C25.4062 105.274 24.9192 105.169 24.5042 104.958C24.0891 104.748 23.7405 104.449 23.4583 104.062C23.1816 103.674 22.9574 103.212 22.7859 102.676C22.6143 102.139 22.4926 101.547 22.4207 100.899V100.343C22.4926 99.69 22.6143 99.0979 22.7859 98.5667C22.9574 98.0299 23.1816 97.5678 23.4583 97.1804C23.7405 96.7875 24.0863 96.4859 24.4958 96.2756C24.9109 96.0653 25.3951 95.9602 25.9485 95.9602C26.524 95.9602 27.0304 96.0709 27.4675 96.2922C27.9102 96.5136 28.2782 96.829 28.5715 97.2385C28.8648 97.6425 29.0834 98.1239 29.2273 98.6829C29.3767 99.2418 29.4514 99.8588 29.4514 100.534ZM27.4509 100.708V100.534C27.4509 100.13 27.4177 99.7509 27.3513 99.3967C27.2849 99.037 27.1742 98.7216 27.0193 98.4504C26.8699 98.1793 26.6651 97.9662 26.405 97.8113C26.1505 97.6508 25.8323 97.5706 25.4504 97.5706C25.0963 97.5706 24.7919 97.6314 24.5374 97.7532C24.2828 97.8749 24.0697 98.0409 23.8982 98.2512C23.7266 98.4615 23.5911 98.705 23.4915 98.9817C23.3974 99.2584 23.3337 99.5572 23.3005 99.8782V101.381C23.3503 101.796 23.4555 102.177 23.616 102.526C23.782 102.869 24.0144 103.146 24.3132 103.356C24.6121 103.561 24.9967 103.663 25.467 103.663C25.8378 103.663 26.1505 103.589 26.405 103.439C26.6596 103.29 26.8616 103.082 27.011 102.817C27.1659 102.545 27.2766 102.23 27.343 101.87C27.415 101.511 27.4509 101.123 27.4509 100.708ZM36.1833 102.676C36.1833 102.476 36.1335 102.296 36.0339 102.136C35.9343 101.97 35.7434 101.821 35.4612 101.688C35.1845 101.555 34.775 101.433 34.2327 101.323C33.7568 101.217 33.3196 101.093 32.9211 100.949C32.5282 100.8 32.1907 100.62 31.9084 100.409C31.6262 100.199 31.4076 99.9501 31.2527 99.6624C31.0977 99.3746 31.0203 99.0426 31.0203 98.6663C31.0203 98.301 31.1005 97.9552 31.261 97.6287C31.4215 97.3022 31.6511 97.0144 31.95 96.7654C32.2488 96.5164 32.6112 96.3199 33.0374 96.176C33.469 96.0321 33.9504 95.9602 34.4817 95.9602C35.2343 95.9602 35.879 96.0875 36.4158 96.342C36.9581 96.5911 37.3731 96.9314 37.6609 97.363C37.9486 97.7891 38.0925 98.2706 38.0925 98.8074H36.092C36.092 98.5694 36.0312 98.3481 35.9094 98.1433C35.7932 97.933 35.6161 97.7642 35.3782 97.637C35.1402 97.5042 34.8414 97.4377 34.4817 97.4377C34.1386 97.4377 33.8536 97.4931 33.6267 97.6038C33.4054 97.7089 33.2393 97.8472 33.1287 98.0188C33.0235 98.1903 32.9709 98.3785 32.9709 98.5833C32.9709 98.7327 32.9986 98.8682 33.054 98.99C33.1148 99.1062 33.2144 99.2141 33.3528 99.3137C33.4911 99.4078 33.6793 99.4963 33.9172 99.5793C34.1607 99.6624 34.4651 99.7426 34.8303 99.8201C35.5165 99.9639 36.1059 100.149 36.5984 100.376C37.0964 100.598 37.4783 100.885 37.7439 101.24C38.0095 101.588 38.1423 102.031 38.1423 102.568C38.1423 102.966 38.0566 103.331 37.885 103.663C37.719 103.99 37.4755 104.275 37.1545 104.518C36.8336 104.756 36.449 104.942 36.0007 105.074C35.558 105.207 35.06 105.274 34.5066 105.274C33.6931 105.274 33.0042 105.13 32.4397 104.842C31.8752 104.549 31.4464 104.175 31.1531 103.721C30.8653 103.262 30.7214 102.786 30.7214 102.294H32.6555C32.6777 102.664 32.78 102.961 32.9626 103.182C33.1508 103.398 33.3832 103.555 33.6599 103.655C33.9421 103.749 34.2327 103.796 34.5315 103.796C34.8912 103.796 35.1928 103.749 35.4363 103.655C35.6798 103.555 35.8652 103.423 35.9924 103.257C36.1197 103.085 36.1833 102.891 36.1833 102.676ZM43.5627 103.68C43.8892 103.68 44.1825 103.616 44.4426 103.489C44.7083 103.356 44.9213 103.174 45.0818 102.941C45.2478 102.709 45.3391 102.44 45.3557 102.136H47.24C47.2289 102.717 47.0574 103.246 46.7253 103.721C46.3933 104.197 45.9534 104.576 45.4055 104.859C44.8577 105.135 44.2517 105.274 43.5876 105.274C42.9014 105.274 42.3038 105.157 41.7947 104.925C41.2856 104.687 40.8622 104.361 40.5247 103.946C40.1871 103.531 39.9325 103.052 39.761 102.51C39.595 101.967 39.512 101.386 39.512 100.766V100.476C39.512 99.856 39.595 99.275 39.761 98.7327C39.9325 98.1848 40.1871 97.7034 40.5247 97.2883C40.8622 96.8733 41.2856 96.5496 41.7947 96.3171C42.3038 96.0792 42.8987 95.9602 43.5793 95.9602C44.2987 95.9602 44.9296 96.1041 45.4719 96.3918C46.0142 96.6741 46.4403 97.0697 46.7502 97.5789C47.0657 98.0824 47.2289 98.669 47.24 99.3386H45.3557C45.3391 99.0066 45.2561 98.7078 45.1067 98.4421C44.9628 98.171 44.7581 97.9552 44.4924 97.7947C44.2323 97.6342 43.9197 97.554 43.5544 97.554C43.1505 97.554 42.8157 97.637 42.55 97.803C42.2844 97.9635 42.0769 98.1848 41.9275 98.467C41.7781 98.7437 41.6702 99.0564 41.6038 99.405C41.5429 99.7481 41.5125 100.105 41.5125 100.476V100.766C41.5125 101.137 41.5429 101.497 41.6038 101.845C41.6646 102.194 41.7698 102.507 41.9192 102.783C42.0741 103.055 42.2844 103.273 42.55 103.439C42.8157 103.6 43.1532 103.68 43.5627 103.68ZM50.7844 97.8362V105.108H48.7839V96.1262H50.6931L50.7844 97.8362ZM53.532 96.0681L53.5154 97.9275C53.3936 97.9054 53.2608 97.8888 53.1169 97.8777C52.9786 97.8666 52.8403 97.8611 52.7019 97.8611C52.3588 97.8611 52.0572 97.9109 51.7971 98.0105C51.537 98.1046 51.3184 98.2429 51.1414 98.4255C50.9698 98.6026 50.837 98.8184 50.7429 99.073C50.6488 99.3276 50.5935 99.6125 50.5769 99.928L50.1204 99.9612C50.1204 99.3967 50.1757 98.8738 50.2864 98.3923C50.3971 97.9109 50.5631 97.4875 50.7844 97.1223C51.0113 96.7571 51.2935 96.4721 51.6311 96.2673C51.9742 96.0626 52.3699 95.9602 52.8181 95.9602C52.9399 95.9602 53.0699 95.9713 53.2083 95.9934C53.3521 96.0155 53.46 96.0404 53.532 96.0681ZM56.927 96.1262V105.108H54.9182V96.1262H56.927ZM54.7854 93.7688C54.7854 93.4644 54.885 93.2126 55.0842 93.0134C55.289 92.8087 55.5712 92.7063 55.9309 92.7063C56.2851 92.7063 56.5645 92.8087 56.7693 93.0134C56.974 93.2126 57.0764 93.4644 57.0764 93.7688C57.0764 94.0676 56.974 94.3167 56.7693 94.5159C56.5645 94.7151 56.2851 94.8147 55.9309 94.8147C55.5712 94.8147 55.289 94.7151 55.0842 94.5159C54.885 94.3167 54.7854 94.0676 54.7854 93.7688ZM61.1272 97.8528V108.561H59.1267V96.1262H60.9695L61.1272 97.8528ZM66.9792 100.534V100.708C66.9792 101.361 66.9018 101.967 66.7468 102.526C66.5974 103.08 66.3733 103.564 66.0745 103.979C65.7812 104.388 65.4187 104.706 64.9871 104.933C64.5554 105.16 64.0574 105.274 63.4929 105.274C62.934 105.274 62.4443 105.171 62.0237 104.967C61.6086 104.756 61.2572 104.46 60.9695 104.078C60.6817 103.697 60.4493 103.248 60.2722 102.734C60.1007 102.213 59.9789 101.643 59.907 101.024V100.351C59.9789 99.6928 60.1007 99.0951 60.2722 98.5583C60.4493 98.0216 60.6817 97.5595 60.9695 97.1721C61.2572 96.7847 61.6086 96.4859 62.0237 96.2756C62.4387 96.0653 62.9229 95.9602 63.4763 95.9602C64.0408 95.9602 64.5416 96.0709 64.9788 96.2922C65.4159 96.5081 65.7839 96.818 66.0828 97.2219C66.3816 97.6204 66.6057 98.1018 66.7551 98.6663C66.9045 99.2252 66.9792 99.8477 66.9792 100.534ZM64.9788 100.708V100.534C64.9788 100.119 64.94 99.7343 64.8625 99.3801C64.7851 99.0204 64.6633 98.705 64.4973 98.4338C64.3313 98.1627 64.1182 97.9524 63.8582 97.803C63.6036 97.648 63.2965 97.5706 62.9368 97.5706C62.5826 97.5706 62.2782 97.6314 62.0237 97.7532C61.7691 97.8694 61.5561 98.0326 61.3845 98.2429C61.213 98.4532 61.0802 98.6995 60.9861 98.9817C60.892 99.2584 60.8256 99.56 60.7869 99.8865V101.497C60.8533 101.895 60.9667 102.26 61.1272 102.593C61.2877 102.925 61.5146 103.19 61.8079 103.389C62.1067 103.583 62.4885 103.68 62.9534 103.68C63.3131 103.68 63.6202 103.602 63.8748 103.448C64.1293 103.293 64.3368 103.08 64.4973 102.808C64.6633 102.532 64.7851 102.213 64.8625 101.854C64.94 101.494 64.9788 101.112 64.9788 100.708ZM72.7981 96.1262V97.5872H67.7346V96.1262H72.7981ZM69.1956 93.9265H71.196V102.626C71.196 102.902 71.2348 103.115 71.3123 103.265C71.3953 103.409 71.5087 103.506 71.6526 103.555C71.7965 103.605 71.9653 103.63 72.1589 103.63C72.2973 103.63 72.4301 103.622 72.5574 103.605C72.6847 103.589 72.787 103.572 72.8645 103.555L72.8728 105.083C72.7068 105.133 72.5131 105.177 72.2917 105.216C72.0759 105.254 71.8269 105.274 71.5447 105.274C71.0854 105.274 70.6786 105.193 70.3245 105.033C69.9703 104.867 69.6936 104.599 69.4944 104.228C69.2952 103.857 69.1956 103.365 69.1956 102.75V93.9265ZM76.4836 96.1262V105.108H74.4749V96.1262H76.4836ZM74.342 93.7688C74.342 93.4644 74.4417 93.2126 74.6409 93.0134C74.8456 92.8087 75.1278 92.7063 75.4875 92.7063C75.8417 92.7063 76.1212 92.8087 76.3259 93.0134C76.5307 93.2126 76.6331 93.4644 76.6331 93.7688C76.6331 94.0676 76.5307 94.3167 76.3259 94.5159C76.1212 94.7151 75.8417 94.8147 75.4875 94.8147C75.1278 94.8147 74.8456 94.7151 74.6409 94.5159C74.4417 94.3167 74.342 94.0676 74.342 93.7688ZM78.2932 100.717V100.526C78.2932 99.8782 78.3873 99.2778 78.5754 98.7244C78.7636 98.1654 79.0347 97.6812 79.3889 97.2717C79.7486 96.8567 80.1858 96.5357 80.7004 96.3088C81.2206 96.0764 81.8072 95.9602 82.4602 95.9602C83.1187 95.9602 83.7053 96.0764 84.22 96.3088C84.7402 96.5357 85.1801 96.8567 85.5398 97.2717C85.8995 97.6812 86.1734 98.1654 86.3616 98.7244C86.5497 99.2778 86.6438 99.8782 86.6438 100.526V100.717C86.6438 101.364 86.5497 101.964 86.3616 102.518C86.1734 103.071 85.8995 103.555 85.5398 103.97C85.1801 104.38 84.7429 104.701 84.2283 104.933C83.7136 105.16 83.1298 105.274 82.4768 105.274C81.8183 105.274 81.2289 105.16 80.7087 104.933C80.1941 104.701 79.7569 104.38 79.3972 103.97C79.0375 103.555 78.7636 103.071 78.5754 102.518C78.3873 101.964 78.2932 101.364 78.2932 100.717ZM80.2937 100.526V100.717C80.2937 101.121 80.3352 101.502 80.4182 101.862C80.5012 102.222 80.6313 102.537 80.8083 102.808C80.9854 103.08 81.2123 103.293 81.489 103.448C81.7657 103.602 82.095 103.68 82.4768 103.68C82.8476 103.68 83.1685 103.602 83.4397 103.448C83.7164 103.293 83.9433 103.08 84.1204 102.808C84.2974 102.537 84.4275 102.222 84.5105 101.862C84.599 101.502 84.6433 101.121 84.6433 100.717V100.526C84.6433 100.127 84.599 99.7509 84.5105 99.3967C84.4275 99.037 84.2947 98.7188 84.1121 98.4421C83.935 98.1654 83.7081 97.9496 83.4314 97.7947C83.1602 97.6342 82.8365 97.554 82.4602 97.554C82.0839 97.554 81.7574 97.6342 81.4807 97.7947C81.2096 97.9496 80.9854 98.1654 80.8083 98.4421C80.6313 98.7188 80.5012 99.037 80.4182 99.3967C80.3352 99.7509 80.2937 100.127 80.2937 100.526ZM90.3044 98.0437V105.108H88.304V96.1262H90.1882L90.3044 98.0437ZM89.9475 100.285L89.3 100.277C89.3056 99.6402 89.3941 99.0564 89.5657 98.5251C89.7428 97.9939 89.9862 97.5374 90.2961 97.1555C90.6116 96.7737 90.9879 96.4804 91.425 96.2756C91.8622 96.0653 92.3492 95.9602 92.886 95.9602C93.3176 95.9602 93.7078 96.0211 94.0564 96.1428C94.4106 96.259 94.7122 96.45 94.9612 96.7156C95.2157 96.9812 95.4094 97.3271 95.5422 97.7532C95.675 98.1737 95.7415 98.6912 95.7415 99.3054V105.108H93.7327V99.2971C93.7327 98.8655 93.669 98.5251 93.5417 98.2761C93.42 98.0216 93.2402 97.8417 93.0022 97.7366C92.7698 97.6259 92.4792 97.5706 92.1306 97.5706C91.7875 97.5706 91.4804 97.6425 91.2092 97.7864C90.9381 97.9303 90.7084 98.1267 90.5203 98.3757C90.3376 98.6248 90.1965 98.9125 90.0969 99.239C89.9973 99.5655 89.9475 99.9141 89.9475 100.285ZM102.822 102.676C102.822 102.476 102.772 102.296 102.673 102.136C102.573 101.97 102.382 101.821 102.1 101.688C101.823 101.555 101.414 101.433 100.871 101.323C100.395 101.217 99.9583 101.093 99.5598 100.949C99.1669 100.8 98.8293 100.62 98.5471 100.409C98.2649 100.199 98.0463 99.9501 97.8914 99.6624C97.7364 99.3746 97.6589 99.0426 97.6589 98.6663C97.6589 98.301 97.7392 97.9552 97.8997 97.6287C98.0601 97.3022 98.2898 97.0144 98.5886 96.7654C98.8875 96.5164 99.2499 96.3199 99.676 96.176C100.108 96.0321 100.589 95.9602 101.12 95.9602C101.873 95.9602 102.518 96.0875 103.054 96.342C103.597 96.5911 104.012 96.9314 104.3 97.363C104.587 97.7891 104.731 98.2706 104.731 98.8074H102.731C102.731 98.5694 102.67 98.3481 102.548 98.1433C102.432 97.933 102.255 97.7642 102.017 97.637C101.779 97.5042 101.48 97.4377 101.12 97.4377C100.777 97.4377 100.492 97.4931 100.265 97.6038C100.044 97.7089 99.878 97.8472 99.7673 98.0188C99.6622 98.1903 99.6096 98.3785 99.6096 98.5833C99.6096 98.7327 99.6373 98.8682 99.6926 98.99C99.7535 99.1062 99.8531 99.2141 99.9915 99.3137C100.13 99.4078 100.318 99.4963 100.556 99.5793C100.799 99.6624 101.104 99.7426 101.469 99.8201C102.155 99.9639 102.745 100.149 103.237 100.376C103.735 100.598 104.117 100.885 104.383 101.24C104.648 101.588 104.781 102.031 104.781 102.568C104.781 102.966 104.695 103.331 104.524 103.663C104.358 103.99 104.114 104.275 103.793 104.518C103.472 104.756 103.088 104.942 102.639 105.074C102.197 105.207 101.699 105.274 101.145 105.274C100.332 105.274 99.6428 105.13 99.0784 104.842C98.5139 104.549 98.085 104.175 97.7917 103.721C97.504 103.262 97.3601 102.786 97.3601 102.294H99.2942C99.3163 102.664 99.4187 102.961 99.6013 103.182C99.7895 103.398 100.022 103.555 100.299 103.655C100.581 103.749 100.871 103.796 101.17 103.796C101.53 103.796 101.831 103.749 102.075 103.655C102.318 103.555 102.504 103.423 102.631 103.257C102.758 103.085 102.822 102.891 102.822 102.676Z" fill="black"/>
<path d="M47.55 69.1C68.8406 69.1 86.1 53.8553 86.1 35.05C86.1 16.2447 68.8406 1 47.55 1C26.2594 1 9 16.2447 9 35.05C9 53.8553 26.2594 69.1 47.55 69.1Z" stroke="black" stroke-width="1.97917" stroke-linecap="round" stroke-linejoin="round"/>
<path d="M64.1087 10.5023C57.4099 15.5275 48.6743 16.9576 35.9313 11.3053L52.8574 27.1615C60.5818 33.9826 60.4903 40.1053 60.9261 46.3293C61.403 53.133 58.1702 56.9972 53.6338 58.6902C47.0803 61.1355 36.4674 58.4305 32.6895 53.106C29.5553 48.6922 30.8947 40.8686 35.596 37.1976C44.0214 30.6204 53.7773 31.8034 60.4115 40.4648" stroke="black" stroke-width="1.97917" stroke-linecap="round" stroke-linejoin="round"/>
</svg>
