<svg width="84" height="90" viewBox="0 0 84 90" fill="none" xmlns="http://www.w3.org/2000/svg">
<path d="M79.7545 35.9587C78.5785 34.5273 71.9776 35.2796 69.0131 35.6158C68.1136 35.719 67.9771 34.9734 68.7856 34.4308C74.0495 30.9154 82.6735 31.9341 83.678 33.1092C84.686 34.2976 83.412 42.52 78.4805 46.4481C77.721 47.0473 77 46.7277 77.336 45.9321C78.4455 43.2956 80.9305 37.3901 79.751 35.9587H79.7545ZM75.9255 40.1132C66.7311 46.5712 53.3961 50 41.9162 50C25.8268 50 11.3368 44.3409 0.3714 34.9268C-0.489596 34.1877 0.280401 33.1791 1.3164 33.7517C13.1463 40.2996 27.7728 44.241 42.8822 44.241C53.7764 44.1902 64.5526 42.0928 74.592 38.0692C76.146 37.4434 77.448 39.0446 75.9255 40.1132ZM77.6125 23.3422C74.949 23.3422 72.9016 22.6465 71.4701 21.2583C70.0386 19.8668 69.3246 17.8728 69.3246 15.2763C69.3246 12.6165 70.0561 10.5326 71.5191 9.01798C72.9821 7.50666 75.012 6.74767 77.6125 6.74767C79.6145 6.74767 81.179 7.20706 82.306 8.12916C83.4365 9.04794 84 10.2763 84 11.8076C84 13.3422 83.391 14.504 82.18 15.2896C80.962 16.0786 79.17 16.4714 76.8075 16.4714C75.5825 16.4714 74.5185 16.3582 73.6156 16.1352C73.7451 17.5033 74.179 18.4854 74.921 19.0779C75.663 19.6704 76.7865 19.97 78.2915 19.97C78.8935 19.97 79.4815 19.9334 80.0485 19.8602C80.914 19.7353 81.7707 19.5608 82.614 19.3375C82.6672 19.3292 82.7211 19.3248 82.775 19.3242C83.139 19.3242 83.321 19.5573 83.321 20.03V21.4414C83.321 21.7676 83.2755 21.9973 83.181 22.1305C83.0318 22.2977 82.8349 22.4203 82.614 22.4834C81.0169 23.0609 79.3211 23.352 77.6125 23.3422V23.3422ZM76.5485 13.7117C77.6475 13.7117 78.442 13.5519 78.9355 13.2357C79.4325 12.9194 79.6775 12.4334 79.6775 11.7776C79.6775 10.4893 78.8725 9.84687 77.2625 9.84687C75.1975 9.84687 74.004 11.0519 73.6786 13.4654C74.5395 13.6318 75.4985 13.7117 76.5485 13.7117V13.7117ZM42.1087 22.8828C41.8287 22.8828 41.6222 22.8229 41.4927 22.6997C41.3667 22.5766 41.3002 22.3802 41.3002 22.1172V7.97603C41.3002 7.68975 41.3667 7.49001 41.4927 7.37683C41.6222 7.26365 41.8287 7.21039 42.1087 7.21039H44.4292C44.9227 7.21039 45.2237 7.43342 45.3322 7.88282L45.5912 8.71172C46.7287 7.99601 47.7577 7.49001 48.6712 7.19374C49.5812 6.89414 50.5262 6.74767 51.4922 6.74767C53.4276 6.74767 54.7926 7.40346 55.5871 8.71172C56.5453 8.08237 57.5868 7.57642 58.6846 7.20706C59.6506 6.9008 60.6516 6.74767 61.6841 6.74767C63.1891 6.74767 64.3546 7.14714 65.1841 7.94607C66.0101 8.74168 66.4231 9.85686 66.4231 11.2883V22.1172C66.4231 22.3835 66.3636 22.5766 66.2481 22.6997C66.1291 22.8229 65.9191 22.8828 65.6181 22.8828H62.5206C62.2406 22.8828 62.0376 22.8229 61.9081 22.6997C61.7786 22.5766 61.7156 22.3802 61.7156 22.1172V12.2703C61.7156 10.8788 61.0576 10.1831 59.7486 10.1831C58.5866 10.1831 57.4141 10.4494 56.2311 10.982V22.1172C56.2311 22.3835 56.1716 22.5766 56.0561 22.6997C55.9371 22.8229 55.7271 22.8828 55.4261 22.8828H52.3321C52.0522 22.8828 51.8457 22.8229 51.7162 22.6997C51.5902 22.5766 51.5237 22.3802 51.5237 22.1172V12.2703C51.5237 10.8788 50.8692 10.1831 49.5567 10.1831C48.3527 10.1831 47.1697 10.4594 46.0112 11.012V22.1172C46.0112 22.3835 45.9517 22.5766 45.8327 22.6997C45.7137 22.8229 45.5037 22.8828 45.2027 22.8828H42.1087ZM34.9547 4.78362C34.1357 4.78362 33.4847 4.57057 32.9877 4.14115C32.4907 3.71172 32.2457 3.12916 32.2457 2.39348C32.2457 1.65779 32.4907 1.07191 32.9877 0.642478C33.4812 0.21305 34.1357 0 34.9547 0C35.7702 0 36.4247 0.21305 36.9217 0.642478C37.1714 0.865812 37.367 1.13806 37.4951 1.44039C37.6232 1.74272 37.6808 2.06792 37.6637 2.39348C37.6637 3.12583 37.4187 3.71172 36.9217 4.14115C36.4282 4.57057 35.7702 4.78362 34.9547 4.78362ZM33.4042 22.8828C33.1242 22.8828 32.9212 22.8196 32.7917 22.6997C32.6622 22.5766 32.5992 22.3802 32.5992 22.1138V7.97603C32.5992 7.68975 32.6622 7.49001 32.7917 7.37683C32.9212 7.26365 33.1277 7.21039 33.4042 7.21039H36.5017C36.8027 7.21039 37.0127 7.26365 37.1317 7.37683C37.2507 7.49001 37.3067 7.68975 37.3067 7.97603V22.1138C37.3067 22.3802 37.2472 22.5766 37.1317 22.6997C37.0127 22.8196 36.8027 22.8828 36.5017 22.8828H33.4042ZM20.5208 22.8828C20.2408 22.8828 20.0343 22.8229 19.9048 22.6997C19.7788 22.5766 19.7123 22.3802 19.7123 22.1172V7.97603C19.7123 7.68975 19.7788 7.49001 19.9048 7.37683C20.0343 7.26365 20.2408 7.21039 20.5208 7.21039H22.8413C23.3348 7.21039 23.6358 7.43342 23.7443 7.88282L24.1643 9.53728C25.0218 8.63848 25.8338 7.99934 26.5968 7.62317C27.3633 7.24368 28.1718 7.05726 29.0328 7.05726H29.4878C29.7853 7.05726 30.0023 7.11052 30.1283 7.2237C30.2578 7.33688 30.3243 7.53662 30.3243 7.8229V10.3961C30.3243 10.6624 30.2648 10.8589 30.1458 10.982C30.0268 11.1019 29.8168 11.1651 29.5158 11.1651C29.3217 11.162 29.1278 11.1509 28.9348 11.1318C28.6344 11.1094 28.3331 11.0994 28.0318 11.1019C27.5418 11.1019 26.9363 11.1684 26.2258 11.3016C25.5188 11.4348 24.9168 11.6045 24.4233 11.8076V22.1172C24.4233 22.3835 24.3603 22.5766 24.2448 22.6997C24.1258 22.8229 23.9158 22.8828 23.6148 22.8828H20.5208ZM1.2044 29.2011C0.924398 29.2011 0.721399 29.1445 0.591899 29.0346C0.4624 28.9214 0.3994 28.7184 0.3994 28.4354V7.97603C0.3994 7.68975 0.4624 7.49001 0.591899 7.37683C0.721399 7.26365 0.924398 7.21039 1.2044 7.21039H3.52839C4.01838 7.21039 4.32288 7.43342 4.43138 7.88282L4.65538 8.68176C5.32983 8.06998 6.12425 7.59039 6.99337 7.27031C7.87934 6.92751 8.82639 6.75007 9.78286 6.74767C11.8688 6.74767 13.5173 7.47337 14.7318 8.92477C15.9498 10.3795 16.5553 12.3402 16.5553 14.8169C16.5553 16.5146 16.2543 17.996 15.6523 19.2643C15.0503 20.5293 14.2348 21.508 13.2023 22.1937C12.1616 22.8808 10.9201 23.2395 9.65336 23.219C8.77136 23.219 7.93486 23.0859 7.13687 22.8196C6.39175 22.5804 5.70239 22.2062 5.10688 21.7177V28.4354C5.10688 28.7184 5.04738 28.9214 4.93188 29.0346C4.81288 29.1445 4.59938 29.2011 4.30188 29.2011H1.2044ZM8.26736 19.8469C9.47136 19.8469 10.3569 19.4574 10.9274 18.6818C11.4978 17.9028 11.7848 16.6744 11.7848 15C11.7848 13.3023 11.5048 12.0639 10.9449 11.2883C10.3849 10.5093 9.49236 10.1232 8.26736 10.1232C7.14737 10.1232 6.09737 10.3995 5.10688 10.9487V19.018C6.05187 19.5706 7.10537 19.8469 8.26736 19.8469V19.8469Z" fill="black" fill-opacity="0.49"/>
<path d="M24.8188 81.4927H21.6729V79.8408H24.8188C25.3667 79.8408 25.8094 79.7523 26.147 79.5752C26.4845 79.3981 26.7308 79.1546 26.8857 78.8447C27.0462 78.5293 27.1265 78.1696 27.1265 77.7656C27.1265 77.3838 27.0462 77.0269 26.8857 76.6948C26.7308 76.3573 26.4845 76.0861 26.147 75.8813C25.8094 75.6766 25.3667 75.5742 24.8188 75.5742H22.312V86H20.2285V73.9141H24.8188C25.7541 73.9141 26.5482 74.0801 27.2012 74.4121C27.8597 74.7386 28.3605 75.1924 28.7036 75.7734C29.0467 76.349 29.2183 77.0075 29.2183 77.749C29.2183 78.5293 29.0467 79.1989 28.7036 79.7578C28.3605 80.3167 27.8597 80.7456 27.2012 81.0444C26.5482 81.3433 25.7541 81.4927 24.8188 81.4927ZM32.8955 78.7285V86H30.895V77.0186H32.8042L32.8955 78.7285ZM35.6431 76.9604L35.6265 78.8198C35.5047 78.7977 35.3719 78.7811 35.228 78.77C35.0897 78.759 34.9513 78.7534 34.813 78.7534C34.4699 78.7534 34.1683 78.8032 33.9082 78.9028C33.6481 78.9969 33.4295 79.1353 33.2524 79.3179C33.0809 79.495 32.9481 79.7108 32.854 79.9653C32.7599 80.2199 32.7046 80.5049 32.688 80.8203L32.2314 80.8535C32.2314 80.2891 32.2868 79.7661 32.3975 79.2847C32.5081 78.8032 32.6742 78.3799 32.8955 78.0146C33.1224 77.6494 33.4046 77.3644 33.7422 77.1597C34.0853 76.9549 34.481 76.8525 34.9292 76.8525C35.0509 76.8525 35.181 76.8636 35.3193 76.8857C35.4632 76.9079 35.5711 76.9328 35.6431 76.9604ZM39.0381 77.0186V86H37.0293V77.0186H39.0381ZM36.8965 74.6611C36.8965 74.3568 36.9961 74.105 37.1953 73.9058C37.4001 73.701 37.6823 73.5986 38.042 73.5986C38.3962 73.5986 38.6756 73.701 38.8804 73.9058C39.0851 74.105 39.1875 74.3568 39.1875 74.6611C39.1875 74.96 39.0851 75.209 38.8804 75.4082C38.6756 75.6074 38.3962 75.707 38.042 75.707C37.6823 75.707 37.4001 75.6074 37.1953 75.4082C36.9961 75.209 36.8965 74.96 36.8965 74.6611ZM43.23 78.8447V86H41.2295V77.0186H43.1138L43.23 78.8447ZM42.9062 81.1772L42.2256 81.1689C42.2256 80.5492 42.3031 79.9764 42.458 79.4507C42.613 78.925 42.8398 78.4684 43.1387 78.0811C43.4375 77.6882 43.8083 77.3866 44.251 77.1763C44.6992 76.9604 45.2166 76.8525 45.8032 76.8525C46.2127 76.8525 46.5863 76.9134 46.9238 77.0352C47.2669 77.1514 47.563 77.3368 47.812 77.5913C48.0666 77.8459 48.2603 78.1724 48.3931 78.5708C48.5314 78.9692 48.6006 79.4507 48.6006 80.0151V86H46.6001V80.1895C46.6001 79.7523 46.5337 79.4092 46.4009 79.1602C46.2736 78.9111 46.0882 78.734 45.8447 78.6289C45.6068 78.5182 45.3218 78.4629 44.9897 78.4629C44.6134 78.4629 44.2925 78.5348 44.0269 78.6787C43.7668 78.8226 43.5537 79.019 43.3877 79.2681C43.2217 79.5171 43.0999 79.8049 43.0225 80.1313C42.945 80.4578 42.9062 80.8065 42.9062 81.1772ZM48.4761 80.646L47.5381 80.8535C47.5381 80.3112 47.6128 79.7993 47.7622 79.3179C47.9172 78.8309 48.1413 78.4048 48.4346 78.0396C48.7334 77.6688 49.1014 77.3783 49.5386 77.168C49.9757 76.9577 50.4766 76.8525 51.041 76.8525C51.5003 76.8525 51.9098 76.9162 52.2695 77.0435C52.6348 77.1652 52.9447 77.3589 53.1992 77.6245C53.4538 77.8901 53.6475 78.236 53.7803 78.6621C53.9131 79.0827 53.9795 79.5918 53.9795 80.1895V86H51.9707V80.1812C51.9707 79.7274 51.9043 79.376 51.7715 79.127C51.6442 78.8779 51.4616 78.7064 51.2236 78.6123C50.9857 78.5127 50.7007 78.4629 50.3687 78.4629C50.0588 78.4629 49.7848 78.521 49.5469 78.6372C49.3145 78.7479 49.118 78.9056 48.9575 79.1104C48.797 79.3096 48.6753 79.5392 48.5923 79.7993C48.5148 80.0594 48.4761 80.3416 48.4761 80.646ZM59.9976 86.166C59.3335 86.166 58.7331 86.0581 58.1963 85.8423C57.665 85.6209 57.2113 85.3138 56.835 84.9209C56.4642 84.528 56.1792 84.0659 55.98 83.5347C55.7808 83.0034 55.6812 82.4307 55.6812 81.8164V81.4844C55.6812 80.7816 55.7835 80.1452 55.9883 79.5752C56.193 79.0052 56.478 78.5182 56.8433 78.1143C57.2085 77.7048 57.6401 77.3921 58.1382 77.1763C58.6362 76.9604 59.1758 76.8525 59.7568 76.8525C60.3988 76.8525 60.9604 76.9604 61.4419 77.1763C61.9233 77.3921 62.3218 77.6965 62.6372 78.0894C62.9582 78.4767 63.1961 78.9388 63.3511 79.4756C63.5116 80.0124 63.5918 80.6045 63.5918 81.252V82.1069H56.6523V80.6709H61.6162V80.5132C61.6051 80.1535 61.5332 79.8159 61.4004 79.5005C61.2731 79.1851 61.0767 78.9305 60.811 78.7368C60.5454 78.5431 60.1912 78.4463 59.7485 78.4463C59.4165 78.4463 59.1204 78.5182 58.8604 78.6621C58.6058 78.8005 58.3927 79.0024 58.2212 79.2681C58.0496 79.5337 57.9168 79.8547 57.8228 80.231C57.7342 80.6017 57.6899 81.0195 57.6899 81.4844V81.8164C57.6899 82.2093 57.7425 82.5745 57.8477 82.9121C57.9583 83.2441 58.1188 83.5347 58.3291 83.7837C58.5394 84.0327 58.7939 84.2292 59.0928 84.373C59.3916 84.5114 59.7319 84.5806 60.1138 84.5806C60.5952 84.5806 61.0241 84.4837 61.4004 84.29C61.7767 84.0964 62.1032 83.8224 62.3799 83.4683L63.4341 84.4893C63.2404 84.7715 62.9886 85.0426 62.6787 85.3027C62.3688 85.5573 61.9897 85.7648 61.5415 85.9253C61.0988 86.0858 60.5841 86.166 59.9976 86.166Z" fill="black"/>
</svg>
