<svg width="130" height="113" viewBox="0 0 130 113" fill="none" xmlns="http://www.w3.org/2000/svg">
<path d="M1.22852 90.9141H5.50342C6.42204 90.9141 7.20508 91.0524 7.85254 91.3291C8.5 91.6058 8.99528 92.0153 9.33838 92.5576C9.68701 93.0944 9.86133 93.7585 9.86133 94.5498C9.86133 95.153 9.75065 95.6842 9.5293 96.1436C9.30794 96.6029 8.99528 96.9902 8.59131 97.3057C8.18734 97.6156 7.70589 97.8563 7.14697 98.0278L6.51611 98.335H2.67285L2.65625 96.6831H5.53662C6.03467 96.6831 6.44971 96.5946 6.78174 96.4175C7.11377 96.2404 7.36279 95.9997 7.52881 95.6953C7.70036 95.3854 7.78613 95.0368 7.78613 94.6494C7.78613 94.2288 7.70312 93.8636 7.53711 93.5537C7.37663 93.2383 7.1276 92.9976 6.79004 92.8315C6.45247 92.66 6.0236 92.5742 5.50342 92.5742H3.31201V103H1.22852V90.9141ZM8.12646 103L5.2876 97.5713L7.4707 97.563L10.3511 102.892V103H8.12646ZM11.3555 98.6089V98.418C11.3555 97.7705 11.4495 97.1701 11.6377 96.6167C11.8258 96.0578 12.097 95.5736 12.4512 95.1641C12.8109 94.749 13.248 94.4281 13.7627 94.2012C14.2829 93.9688 14.8695 93.8525 15.5225 93.8525C16.181 93.8525 16.7676 93.9688 17.2822 94.2012C17.8024 94.4281 18.2424 94.749 18.6021 95.1641C18.9618 95.5736 19.2357 96.0578 19.4238 96.6167C19.612 97.1701 19.7061 97.7705 19.7061 98.418V98.6089C19.7061 99.2563 19.612 99.8568 19.4238 100.41C19.2357 100.964 18.9618 101.448 18.6021 101.863C18.2424 102.272 17.8052 102.593 17.2905 102.826C16.7759 103.053 16.1921 103.166 15.5391 103.166C14.8805 103.166 14.2912 103.053 13.771 102.826C13.2563 102.593 12.8192 102.272 12.4595 101.863C12.0998 101.448 11.8258 100.964 11.6377 100.41C11.4495 99.8568 11.3555 99.2563 11.3555 98.6089ZM13.356 98.418V98.6089C13.356 99.0129 13.3975 99.3947 13.4805 99.7544C13.5635 100.114 13.6935 100.43 13.8706 100.701C14.0477 100.972 14.2746 101.185 14.5513 101.34C14.828 101.495 15.1572 101.572 15.5391 101.572C15.9098 101.572 16.2308 101.495 16.502 101.34C16.7786 101.185 17.0055 100.972 17.1826 100.701C17.3597 100.43 17.4897 100.114 17.5728 99.7544C17.6613 99.3947 17.7056 99.0129 17.7056 98.6089V98.418C17.7056 98.0195 17.6613 97.6432 17.5728 97.2891C17.4897 96.9294 17.3569 96.6112 17.1743 96.3345C16.9972 96.0578 16.7703 95.842 16.4937 95.687C16.2225 95.5265 15.8988 95.4463 15.5225 95.4463C15.1462 95.4463 14.8197 95.5265 14.543 95.687C14.2718 95.842 14.0477 96.0578 13.8706 96.3345C13.6935 96.6112 13.5635 96.9294 13.4805 97.2891C13.3975 97.6432 13.356 98.0195 13.356 98.418ZM21.001 98.6089V98.418C21.001 97.7705 21.0951 97.1701 21.2832 96.6167C21.4714 96.0578 21.7425 95.5736 22.0967 95.1641C22.4564 94.749 22.8936 94.4281 23.4082 94.2012C23.9284 93.9688 24.515 93.8525 25.168 93.8525C25.8265 93.8525 26.4131 93.9688 26.9277 94.2012C27.4479 94.4281 27.8879 94.749 28.2476 95.1641C28.6073 95.5736 28.8812 96.0578 29.0693 96.6167C29.2575 97.1701 29.3516 97.7705 29.3516 98.418V98.6089C29.3516 99.2563 29.2575 99.8568 29.0693 100.41C28.8812 100.964 28.6073 101.448 28.2476 101.863C27.8879 102.272 27.4507 102.593 26.936 102.826C26.4214 103.053 25.8376 103.166 25.1846 103.166C24.526 103.166 23.9367 103.053 23.4165 102.826C22.9019 102.593 22.4647 102.272 22.105 101.863C21.7453 101.448 21.4714 100.964 21.2832 100.41C21.0951 99.8568 21.001 99.2563 21.001 98.6089ZM23.0015 98.418V98.6089C23.0015 99.0129 23.043 99.3947 23.126 99.7544C23.209 100.114 23.339 100.43 23.5161 100.701C23.6932 100.972 23.9201 101.185 24.1968 101.34C24.4735 101.495 24.8027 101.572 25.1846 101.572C25.5553 101.572 25.8763 101.495 26.1475 101.34C26.4242 101.185 26.651 100.972 26.8281 100.701C27.0052 100.43 27.1353 100.114 27.2183 99.7544C27.3068 99.3947 27.3511 99.0129 27.3511 98.6089V98.418C27.3511 98.0195 27.3068 97.6432 27.2183 97.2891C27.1353 96.9294 27.0024 96.6112 26.8198 96.3345C26.6427 96.0578 26.4159 95.842 26.1392 95.687C25.868 95.5265 25.5443 95.4463 25.168 95.4463C24.7917 95.4463 24.4652 95.5265 24.1885 95.687C23.9173 95.842 23.6932 96.0578 23.5161 96.3345C23.339 96.6112 23.209 96.9294 23.126 97.2891C23.043 97.6432 23.0015 98.0195 23.0015 98.418ZM33.0288 95.8447V103H31.0283V94.0186H32.9126L33.0288 95.8447ZM32.7051 98.1772L32.0244 98.1689C32.0244 97.5492 32.1019 96.9764 32.2568 96.4507C32.4118 95.925 32.6387 95.4684 32.9375 95.0811C33.2363 94.6882 33.6071 94.3866 34.0498 94.1763C34.498 93.9604 35.0155 93.8525 35.6021 93.8525C36.0116 93.8525 36.3851 93.9134 36.7227 94.0352C37.0658 94.1514 37.3618 94.3368 37.6108 94.5913C37.8654 94.8459 38.0591 95.1724 38.1919 95.5708C38.3302 95.9692 38.3994 96.4507 38.3994 97.0151V103H36.3989V97.1895C36.3989 96.7523 36.3325 96.4092 36.1997 96.1602C36.0724 95.9111 35.887 95.734 35.6436 95.6289C35.4056 95.5182 35.1206 95.4629 34.7886 95.4629C34.4123 95.4629 34.0913 95.5348 33.8257 95.6787C33.5656 95.8226 33.3525 96.019 33.1865 96.2681C33.0205 96.5171 32.8988 96.8049 32.8213 97.1313C32.7438 97.4578 32.7051 97.8065 32.7051 98.1772ZM38.2749 97.646L37.3369 97.8535C37.3369 97.3112 37.4116 96.7993 37.561 96.3179C37.716 95.8309 37.9401 95.4048 38.2334 95.0396C38.5322 94.6688 38.9002 94.3783 39.3374 94.168C39.7746 93.9577 40.2754 93.8525 40.8398 93.8525C41.2992 93.8525 41.7087 93.9162 42.0684 94.0435C42.4336 94.1652 42.7435 94.3589 42.998 94.6245C43.2526 94.8901 43.4463 95.236 43.5791 95.6621C43.7119 96.0827 43.7783 96.5918 43.7783 97.1895V103H41.7695V97.1812C41.7695 96.7274 41.7031 96.376 41.5703 96.127C41.443 95.8779 41.2604 95.7064 41.0225 95.6123C40.7845 95.5127 40.4995 95.4629 40.1675 95.4629C39.8576 95.4629 39.5837 95.521 39.3457 95.6372C39.1133 95.7479 38.9168 95.9056 38.7563 96.1104C38.5959 96.3096 38.4741 96.5392 38.3911 96.7993C38.3136 97.0594 38.2749 97.3416 38.2749 97.646ZM54.8018 97.5381H51.7222L51.7056 96.019H54.395C54.8488 96.019 55.2334 95.9526 55.5488 95.8198C55.8698 95.6815 56.1133 95.485 56.2793 95.2305C56.4453 94.9704 56.5283 94.6577 56.5283 94.2925C56.5283 93.8885 56.4508 93.5592 56.2959 93.3047C56.141 93.0501 55.903 92.8647 55.582 92.7485C55.2666 92.6323 54.8626 92.5742 54.3701 92.5742H52.353V103H50.2695V90.9141H54.3701C55.0342 90.9141 55.6263 90.9777 56.1465 91.105C56.6722 91.2323 57.1177 91.4315 57.4829 91.7026C57.8537 91.9683 58.1331 92.3058 58.3213 92.7153C58.515 93.1248 58.6118 93.6118 58.6118 94.1763C58.6118 94.6743 58.4928 95.1309 58.2549 95.5459C58.0169 95.9554 57.6655 96.2902 57.2007 96.5503C56.7358 96.8104 56.1576 96.9653 55.4658 97.0151L54.8018 97.5381ZM54.7104 103H51.0664L52.0044 101.348H54.7104C55.1808 101.348 55.5737 101.271 55.8892 101.116C56.2046 100.955 56.4398 100.737 56.5947 100.46C56.7552 100.178 56.8354 99.8485 56.8354 99.4722C56.8354 99.0793 56.7663 98.7389 56.6279 98.4512C56.4896 98.1579 56.271 97.9338 55.9722 97.7788C55.6733 97.6183 55.2832 97.5381 54.8018 97.5381H52.4609L52.4775 96.019H55.5239L55.9971 96.5918C56.6611 96.6139 57.2062 96.7606 57.6323 97.0317C58.064 97.3029 58.3849 97.6543 58.5952 98.0859C58.8055 98.5176 58.9106 98.9824 58.9106 99.4805C58.9106 100.25 58.7419 100.894 58.4043 101.415C58.0723 101.935 57.5936 102.33 56.9683 102.602C56.3429 102.867 55.5903 103 54.7104 103ZM60.4297 98.6089V98.418C60.4297 97.7705 60.5238 97.1701 60.7119 96.6167C60.9001 96.0578 61.1712 95.5736 61.5254 95.1641C61.8851 94.749 62.3223 94.4281 62.8369 94.2012C63.3571 93.9688 63.9437 93.8525 64.5967 93.8525C65.2552 93.8525 65.8418 93.9688 66.3564 94.2012C66.8766 94.4281 67.3166 94.749 67.6763 95.1641C68.036 95.5736 68.3099 96.0578 68.498 96.6167C68.6862 97.1701 68.7803 97.7705 68.7803 98.418V98.6089C68.7803 99.2563 68.6862 99.8568 68.498 100.41C68.3099 100.964 68.036 101.448 67.6763 101.863C67.3166 102.272 66.8794 102.593 66.3647 102.826C65.8501 103.053 65.2663 103.166 64.6133 103.166C63.9548 103.166 63.3654 103.053 62.8452 102.826C62.3306 102.593 61.8934 102.272 61.5337 101.863C61.174 101.448 60.9001 100.964 60.7119 100.41C60.5238 99.8568 60.4297 99.2563 60.4297 98.6089ZM62.4302 98.418V98.6089C62.4302 99.0129 62.4717 99.3947 62.5547 99.7544C62.6377 100.114 62.7677 100.43 62.9448 100.701C63.1219 100.972 63.3488 101.185 63.6255 101.34C63.9022 101.495 64.2314 101.572 64.6133 101.572C64.984 101.572 65.305 101.495 65.5762 101.34C65.8529 101.185 66.0798 100.972 66.2568 100.701C66.4339 100.43 66.564 100.114 66.647 99.7544C66.7355 99.3947 66.7798 99.0129 66.7798 98.6089V98.418C66.7798 98.0195 66.7355 97.6432 66.647 97.2891C66.564 96.9294 66.4312 96.6112 66.2485 96.3345C66.0715 96.0578 65.8446 95.842 65.5679 95.687C65.2967 95.5265 64.973 95.4463 64.5967 95.4463C64.2204 95.4463 63.8939 95.5265 63.6172 95.687C63.346 95.842 63.1219 96.0578 62.9448 96.3345C62.7677 96.6112 62.6377 96.9294 62.5547 97.2891C62.4717 97.6432 62.4302 98.0195 62.4302 98.418ZM70.0752 98.6089V98.418C70.0752 97.7705 70.1693 97.1701 70.3574 96.6167C70.5456 96.0578 70.8167 95.5736 71.1709 95.1641C71.5306 94.749 71.9678 94.4281 72.4824 94.2012C73.0026 93.9688 73.5892 93.8525 74.2422 93.8525C74.9007 93.8525 75.4873 93.9688 76.002 94.2012C76.5221 94.4281 76.9621 94.749 77.3218 95.1641C77.6815 95.5736 77.9554 96.0578 78.1436 96.6167C78.3317 97.1701 78.4258 97.7705 78.4258 98.418V98.6089C78.4258 99.2563 78.3317 99.8568 78.1436 100.41C77.9554 100.964 77.6815 101.448 77.3218 101.863C76.9621 102.272 76.5249 102.593 76.0103 102.826C75.4956 103.053 74.9118 103.166 74.2588 103.166C73.6003 103.166 73.0109 103.053 72.4907 102.826C71.9761 102.593 71.5389 102.272 71.1792 101.863C70.8195 101.448 70.5456 100.964 70.3574 100.41C70.1693 99.8568 70.0752 99.2563 70.0752 98.6089ZM72.0757 98.418V98.6089C72.0757 99.0129 72.1172 99.3947 72.2002 99.7544C72.2832 100.114 72.4132 100.43 72.5903 100.701C72.7674 100.972 72.9943 101.185 73.271 101.34C73.5477 101.495 73.877 101.572 74.2588 101.572C74.6296 101.572 74.9505 101.495 75.2217 101.34C75.4984 101.185 75.7253 100.972 75.9023 100.701C76.0794 100.43 76.2095 100.114 76.2925 99.7544C76.381 99.3947 76.4253 99.0129 76.4253 98.6089V98.418C76.4253 98.0195 76.381 97.6432 76.2925 97.2891C76.2095 96.9294 76.0767 96.6112 75.894 96.3345C75.717 96.0578 75.4901 95.842 75.2134 95.687C74.9422 95.5265 74.6185 95.4463 74.2422 95.4463C73.8659 95.4463 73.5394 95.5265 73.2627 95.687C72.9915 95.842 72.7674 96.0578 72.5903 96.3345C72.4132 96.6112 72.2832 96.9294 72.2002 97.2891C72.1172 97.6432 72.0757 98.0195 72.0757 98.418ZM82.1196 90.25V103H80.1108V90.25H82.1196ZM87.6978 94.0186L83.7881 98.3516L81.6465 100.543L81.1235 98.8496L82.7422 96.8491L85.2822 94.0186H87.6978ZM85.7139 103L82.8003 98.7832L84.062 97.3804L88.0298 103H85.7139ZM91.1094 94.0186V103H89.1006V94.0186H91.1094ZM88.9678 91.6611C88.9678 91.3568 89.0674 91.105 89.2666 90.9058C89.4714 90.701 89.7536 90.5986 90.1133 90.5986C90.4674 90.5986 90.7469 90.701 90.9517 90.9058C91.1564 91.105 91.2588 91.3568 91.2588 91.6611C91.2588 91.96 91.1564 92.209 90.9517 92.4082C90.7469 92.6074 90.4674 92.707 90.1133 92.707C89.7536 92.707 89.4714 92.6074 89.2666 92.4082C89.0674 92.209 88.9678 91.96 88.9678 91.6611ZM95.2847 95.936V103H93.2842V94.0186H95.1685L95.2847 95.936ZM94.9277 98.1772L94.2803 98.1689C94.2858 97.5326 94.3743 96.9487 94.5459 96.4175C94.723 95.8862 94.9665 95.4297 95.2764 95.0479C95.5918 94.666 95.9681 94.3727 96.4053 94.168C96.8424 93.9577 97.3294 93.8525 97.8662 93.8525C98.2979 93.8525 98.688 93.9134 99.0366 94.0352C99.3908 94.1514 99.6924 94.3423 99.9414 94.6079C100.196 94.8735 100.39 95.2194 100.522 95.6455C100.655 96.0661 100.722 96.5835 100.722 97.1978V103H98.7129V97.1895C98.7129 96.7578 98.6493 96.4175 98.522 96.1685C98.4002 95.9139 98.2204 95.734 97.9824 95.6289C97.75 95.5182 97.4595 95.4629 97.1108 95.4629C96.7677 95.4629 96.4606 95.5348 96.1895 95.6787C95.9183 95.8226 95.6886 96.019 95.5005 96.2681C95.3179 96.5171 95.1768 96.8049 95.0771 97.1313C94.9775 97.4578 94.9277 97.8065 94.9277 98.1772ZM108.516 94.0186H110.334V102.751C110.334 103.559 110.162 104.245 109.819 104.81C109.476 105.374 108.998 105.803 108.383 106.096C107.769 106.395 107.058 106.544 106.25 106.544C105.907 106.544 105.525 106.495 105.104 106.395C104.689 106.295 104.285 106.135 103.893 105.914C103.505 105.698 103.181 105.413 102.921 105.059L103.859 103.88C104.18 104.262 104.535 104.541 104.922 104.718C105.309 104.895 105.716 104.984 106.142 104.984C106.601 104.984 106.992 104.898 107.312 104.727C107.639 104.561 107.891 104.314 108.068 103.988C108.245 103.661 108.333 103.263 108.333 102.792V96.0522L108.516 94.0186ZM102.415 98.6089V98.4346C102.415 97.7539 102.498 97.1341 102.664 96.5752C102.83 96.0107 103.068 95.5265 103.378 95.1226C103.688 94.7131 104.064 94.4004 104.507 94.1846C104.95 93.9632 105.45 93.8525 106.009 93.8525C106.59 93.8525 107.086 93.9577 107.495 94.168C107.91 94.3783 108.256 94.6799 108.533 95.0728C108.809 95.4601 109.025 95.925 109.18 96.4673C109.341 97.0041 109.46 97.6017 109.537 98.2603V98.8164C109.465 99.4583 109.343 100.045 109.172 100.576C109 101.107 108.773 101.567 108.491 101.954C108.209 102.341 107.86 102.64 107.445 102.851C107.036 103.061 106.552 103.166 105.993 103.166C105.445 103.166 104.95 103.053 104.507 102.826C104.07 102.599 103.693 102.281 103.378 101.871C103.068 101.462 102.83 100.98 102.664 100.427C102.498 99.8678 102.415 99.2619 102.415 98.6089ZM104.416 98.4346V98.6089C104.416 99.0184 104.454 99.4002 104.532 99.7544C104.615 100.109 104.739 100.421 104.905 100.692C105.077 100.958 105.293 101.168 105.553 101.323C105.818 101.473 106.131 101.547 106.491 101.547C106.961 101.547 107.346 101.448 107.645 101.249C107.949 101.049 108.181 100.781 108.342 100.443C108.508 100.1 108.624 99.7184 108.69 99.2979V97.7954C108.657 97.4689 108.588 97.1646 108.483 96.8823C108.383 96.6001 108.248 96.3538 108.076 96.1436C107.905 95.9277 107.689 95.7617 107.429 95.6455C107.169 95.5238 106.861 95.4629 106.507 95.4629C106.148 95.4629 105.835 95.5404 105.569 95.6953C105.304 95.8503 105.085 96.0633 104.914 96.3345C104.748 96.6056 104.623 96.9211 104.54 97.2808C104.457 97.6405 104.416 98.0251 104.416 98.4346Z" fill="black"/>
<path d="M53.3519 0.0348844L77.1733 5.65988C77.5268 5.74336 77.8453 5.97254 78.0743 6.30819C78.3033 6.64384 78.4285 7.0651 78.4286 7.49988V52.4999C78.4285 52.9347 78.3033 53.3559 78.0743 53.6916C77.8453 54.0272 77.5268 54.2564 77.1733 54.3399L53.3519 59.9649C53.1268 60.018 52.8948 60.0104 52.6725 59.9425C52.4503 59.8746 52.2432 59.7482 52.0661 59.5723C51.8891 59.3964 51.7465 59.1754 51.6487 58.9252C51.5508 58.6749 51.5 58.4016 51.5 58.1249V1.87488C51.5 1.59815 51.5508 1.32485 51.6487 1.07459C51.7465 0.824336 51.8891 0.603334 52.0661 0.427444C52.2432 0.251554 52.4503 0.125137 52.6725 0.0572659C52.8948 -0.0106055 53.1268 -0.0182491 53.3519 0.0348844ZM54.6071 4.15238V55.8499L75.3214 50.9599V9.04488L54.6071 4.15238ZM49.4286 6.25238V9.99988H40.1071V49.9999H49.4286V53.7499H38.5536C38.1778 53.7498 37.8149 53.5853 37.5319 53.287C37.2489 52.9887 37.0651 52.5767 37.0145 52.1274L37 51.8749V8.12488C37 7.67179 37.136 7.23403 37.3827 6.89256C37.6295 6.55109 37.9704 6.329 38.3423 6.26738L38.5536 6.24988H49.4286V6.25238ZM59.7857 27.5024C60.3351 27.5024 60.862 27.7658 61.2504 28.2346C61.6389 28.7035 61.8571 29.3393 61.8571 30.0024C61.8571 30.6654 61.6389 31.3013 61.2504 31.7701C60.862 32.239 60.3351 32.5024 59.7857 32.5024C59.2363 32.5024 58.7095 32.239 58.321 31.7701C57.9325 31.3013 57.7143 30.6654 57.7143 30.0024C57.7143 29.3393 57.9325 28.7035 58.321 28.2346C58.7095 27.7658 59.2363 27.5024 59.7857 27.5024Z" fill="#2E2827"/>
</svg>
