<svg width="140" height="117" viewBox="0 0 140 117" fill="none" xmlns="http://www.w3.org/2000/svg">
<path d="M35.6549 29.7613V52.0565C35.6549 53.5348 36.3409 54.9525 37.5621 55.9978C38.7832 57.0431 40.4393 57.6303 42.1662 57.6303H81.234C82.9609 57.6303 84.6171 57.0431 85.8382 55.9978C87.0593 54.9525 87.7453 53.5348 87.7453 52.0565V29.7613" stroke="black" stroke-width="2" stroke-linecap="round" stroke-linejoin="round"/>
<path d="M74.7227 13.0399L61.7001 1.89227L48.6775 13.0399" stroke="black" stroke-width="2" stroke-linecap="round" stroke-linejoin="round"/>
<path d="M61.7001 1.89227V38.1219" stroke="black" stroke-width="2" stroke-linecap="round" stroke-linejoin="round"/>
<path d="M2.7851 94.6922H4.86322L8.76898 105.111L12.6655 94.6922H14.7436L9.58539 108.2H7.93402L2.7851 94.6922ZM1.83881 94.6922H3.81488L4.15814 103.71V108.2H1.83881V94.6922ZM13.7138 94.6922H15.6992V108.2H13.3705V103.71L13.7138 94.6922ZM17.8144 103.292V103.079C17.8144 102.355 17.9195 101.684 18.1298 101.066C18.3401 100.441 18.6432 99.8999 19.039 99.4422C19.441 98.9784 19.9296 98.6196 20.5048 98.3661C21.0862 98.1063 21.7418 97.9764 22.4716 97.9764C23.2076 97.9764 23.8632 98.1063 24.4384 98.3661C25.0198 98.6196 25.5115 98.9784 25.9135 99.4422C26.3155 99.8999 26.6217 100.441 26.832 101.066C27.0423 101.684 27.1474 102.355 27.1474 103.079V103.292C27.1474 104.016 27.0423 104.687 26.832 105.306C26.6217 105.924 26.3155 106.465 25.9135 106.929C25.5115 107.387 25.0229 107.745 24.4477 108.005C23.8725 108.259 23.22 108.386 22.4902 108.386C21.7542 108.386 21.0955 108.259 20.5141 108.005C19.9389 107.745 19.4503 107.387 19.0483 106.929C18.6463 106.465 18.3401 105.924 18.1298 105.306C17.9195 104.687 17.8144 104.016 17.8144 103.292ZM20.0502 103.079V103.292C20.0502 103.744 20.0966 104.171 20.1894 104.573C20.2822 104.975 20.4275 105.327 20.6254 105.63C20.8233 105.933 21.0769 106.171 21.3862 106.345C21.6954 106.518 22.0634 106.604 22.4902 106.604C22.9046 106.604 23.2633 106.518 23.5663 106.345C23.8756 106.171 24.1292 105.933 24.3271 105.63C24.525 105.327 24.6703 104.975 24.7631 104.573C24.8621 104.171 24.9116 103.744 24.9116 103.292V103.079C24.9116 102.634 24.8621 102.213 24.7631 101.817C24.6703 101.415 24.5219 101.06 24.3178 100.75C24.1199 100.441 23.8663 100.2 23.5571 100.027C23.254 99.8473 22.8922 99.7577 22.4716 99.7577C22.051 99.7577 21.6861 99.8473 21.3769 100.027C21.0738 100.2 20.8233 100.441 20.6254 100.75C20.4275 101.06 20.2822 101.415 20.1894 101.817C20.0966 102.213 20.0502 102.634 20.0502 103.079ZM31.2387 100.305V108.2H29.0029V98.162H31.1088L31.2387 100.305ZM30.8398 102.81L30.1161 102.801C30.1223 102.089 30.2213 101.437 30.413 100.843C30.6109 100.249 30.8831 99.7391 31.2294 99.3123C31.582 98.8856 32.0025 98.5578 32.4911 98.3289C32.9798 98.0939 33.524 97.9764 34.124 97.9764C34.6064 97.9764 35.0424 98.0444 35.4321 98.1805C35.8279 98.3104 36.165 98.5238 36.4433 98.8206C36.7278 99.1175 36.9443 99.5041 37.0927 99.9803C37.2411 100.45 37.3154 101.029 37.3154 101.715V108.2H35.0703V101.706C35.0703 101.223 34.9991 100.843 34.8569 100.565C34.7208 100.28 34.5198 100.079 34.2538 99.9618C33.9941 99.8381 33.6694 99.7762 33.2797 99.7762C32.8963 99.7762 32.553 99.8566 32.2499 100.017C31.9469 100.178 31.6902 100.398 31.4799 100.676C31.2758 100.954 31.1181 101.276 31.0068 101.641C30.8954 102.006 30.8398 102.396 30.8398 102.81ZM44.0229 108.386C43.2807 108.386 42.6096 108.265 42.0097 108.024C41.416 107.776 40.9088 107.433 40.4882 106.994C40.0738 106.555 39.7553 106.038 39.5327 105.445C39.31 104.851 39.1987 104.211 39.1987 103.524V103.153C39.1987 102.368 39.3131 101.656 39.5419 101.019C39.7708 100.382 40.0893 99.8381 40.4975 99.3866C40.9057 98.9289 41.3881 98.5794 41.9448 98.3382C42.5014 98.097 43.1044 97.9764 43.7538 97.9764C44.4713 97.9764 45.0991 98.097 45.6371 98.3382C46.1752 98.5794 46.6205 98.9196 46.9731 99.3587C47.3318 99.7917 47.5978 100.308 47.7709 100.908C47.9503 101.508 48.04 102.17 48.04 102.893V103.849H40.2841V102.244H45.832V102.068C45.8196 101.666 45.7392 101.288 45.5908 100.936C45.4485 100.583 45.2289 100.299 44.9321 100.082C44.6352 99.8659 44.2394 99.7577 43.7446 99.7577C43.3735 99.7577 43.0426 99.8381 42.7519 99.9989C42.4674 100.153 42.2293 100.379 42.0375 100.676C41.8458 100.973 41.6974 101.332 41.5922 101.752C41.4933 102.167 41.4438 102.634 41.4438 103.153V103.524C41.4438 103.963 41.5025 104.372 41.6201 104.749C41.7438 105.12 41.9231 105.445 42.1581 105.723C42.3932 106.001 42.6777 106.221 43.0117 106.382C43.3456 106.536 43.726 106.614 44.1528 106.614C44.6909 106.614 45.1702 106.505 45.5908 106.289C46.0113 106.072 46.3762 105.766 46.6855 105.37L47.8637 106.512C47.6472 106.827 47.3658 107.13 47.0195 107.421C46.6731 107.705 46.2495 107.937 45.7485 108.117C45.2537 108.296 44.6785 108.386 44.0229 108.386ZM52.5673 107.105L55.2949 98.162H57.6884L53.662 109.731C53.5693 109.978 53.4487 110.247 53.3002 110.538C53.1518 110.829 52.957 111.104 52.7158 111.364C52.4807 111.63 52.187 111.843 51.8344 112.004C51.4819 112.171 51.0551 112.254 50.5541 112.254C50.3562 112.254 50.1645 112.236 49.9789 112.199C49.7996 112.168 49.6295 112.134 49.4687 112.097L49.4594 110.389C49.5213 110.396 49.5955 110.402 49.6821 110.408C49.7748 110.414 49.8491 110.417 49.9047 110.417C50.2758 110.417 50.5851 110.371 50.8325 110.278C51.0799 110.192 51.2809 110.049 51.4355 109.851C51.5963 109.653 51.7324 109.388 51.8437 109.054L52.5673 107.105ZM51.0273 98.162L53.4116 105.677L53.8105 108.033L52.2612 108.432L48.6152 98.162H51.0273ZM69.0346 94.6922V108.2H66.7245V94.6922H69.0346ZM73.2744 94.6922V96.5477H62.5219V94.6922H73.2744ZM76.4101 100.073V108.2H74.1743V98.162H76.308L76.4101 100.073ZM79.4809 98.097L79.4623 100.175C79.3263 100.15 79.1778 100.132 79.017 100.119C78.8624 100.107 78.7078 100.101 78.5532 100.101C78.1697 100.101 77.8326 100.157 77.5419 100.268C77.2512 100.373 77.0069 100.528 76.809 100.732C76.6173 100.93 76.4689 101.171 76.3637 101.455C76.2586 101.74 76.1967 102.058 76.1782 102.411L75.6679 102.448C75.6679 101.817 75.7298 101.233 75.8535 100.695C75.9772 100.157 76.1627 99.6834 76.4101 99.2752C76.6637 98.867 76.9791 98.5485 77.3564 98.3197C77.7398 98.0908 78.1821 97.9764 78.683 97.9764C78.8191 97.9764 78.9645 97.9888 79.1191 98.0135C79.2799 98.0383 79.4005 98.0661 79.4809 98.097ZM86.207 106.187V101.4C86.207 101.041 86.142 100.732 86.0121 100.472C85.8823 100.212 85.6843 100.011 85.4184 99.869C85.1586 99.7267 84.8308 99.6556 84.435 99.6556C84.0701 99.6556 83.7547 99.7175 83.4887 99.8412C83.2228 99.9649 83.0156 100.132 82.8671 100.342C82.7187 100.552 82.6445 100.791 82.6445 101.056H80.4179C80.4179 100.661 80.5138 100.277 80.7055 99.9061C80.8972 99.535 81.1756 99.2041 81.5405 98.9134C81.9054 98.6227 82.3414 98.3939 82.8486 98.2269C83.3557 98.0599 83.9247 97.9764 84.5556 97.9764C85.3102 97.9764 85.9781 98.1032 86.5595 98.3568C87.1471 98.6104 87.6078 98.9938 87.9418 99.5072C88.282 100.014 88.4521 100.651 88.4521 101.418V105.881C88.4521 106.338 88.483 106.75 88.5449 107.115C88.6129 107.473 88.7088 107.786 88.8325 108.052V108.2H86.541C86.4358 107.959 86.3523 107.653 86.2905 107.282C86.2348 106.904 86.207 106.539 86.207 106.187ZM86.5317 102.096L86.5502 103.478H84.9453C84.5309 103.478 84.166 103.518 83.8505 103.598C83.5351 103.673 83.2722 103.784 83.062 103.932C82.8517 104.081 82.6939 104.26 82.5888 104.471C82.4837 104.681 82.4311 104.919 82.4311 105.185C82.4311 105.451 82.4929 105.695 82.6166 105.918C82.7403 106.134 82.9197 106.304 83.1547 106.428C83.3959 106.552 83.6866 106.614 84.0268 106.614C84.4845 106.614 84.8834 106.521 85.2236 106.335C85.5699 106.144 85.8421 105.912 86.04 105.639C86.2379 105.361 86.343 105.098 86.3554 104.851L87.079 105.844C87.0048 106.097 86.878 106.369 86.6987 106.66C86.5193 106.951 86.2843 107.229 85.9936 107.495C85.7091 107.755 85.3658 107.968 84.9638 108.135C84.568 108.302 84.1103 108.386 83.5908 108.386C82.9352 108.386 82.3507 108.256 81.8373 107.996C81.324 107.73 80.922 107.374 80.6313 106.929C80.3406 106.478 80.1953 105.967 80.1953 105.398C80.1953 104.866 80.2942 104.396 80.4921 103.988C80.6962 103.574 80.9931 103.227 81.3828 102.949C81.7786 102.671 82.261 102.46 82.83 102.318C83.399 102.17 84.0484 102.096 84.7783 102.096H86.5317ZM93.0073 100.305V108.2H90.7714V98.162H92.8774L93.0073 100.305ZM92.6083 102.81L91.8847 102.801C91.8909 102.089 91.9898 101.437 92.1816 100.843C92.3795 100.249 92.6516 99.7391 92.998 99.3123C93.3505 98.8856 93.7711 98.5578 94.2597 98.3289C94.7483 98.0939 95.2926 97.9764 95.8925 97.9764C96.3749 97.9764 96.811 98.0444 97.2006 98.1805C97.5965 98.3104 97.9335 98.5238 98.2119 98.8206C98.4964 99.1175 98.7128 99.5041 98.8613 99.9803C99.0097 100.45 99.0839 101.029 99.0839 101.715V108.2H96.8388V101.706C96.8388 101.223 96.7677 100.843 96.6254 100.565C96.4894 100.28 96.2884 100.079 96.0224 99.9618C95.7626 99.8381 95.4379 99.7762 95.0483 99.7762C94.6648 99.7762 94.3216 99.8566 94.0185 100.017C93.7154 100.178 93.4588 100.398 93.2485 100.676C93.0444 100.954 92.8867 101.276 92.7753 101.641C92.664 102.006 92.6083 102.396 92.6083 102.81ZM106.997 105.482C106.997 105.259 106.942 105.058 106.831 104.879C106.719 104.693 106.506 104.526 106.19 104.378C105.881 104.229 105.423 104.093 104.817 103.97C104.285 103.852 103.797 103.713 103.352 103.552C102.912 103.385 102.535 103.184 102.22 102.949C101.904 102.714 101.66 102.436 101.487 102.114C101.314 101.792 101.227 101.421 101.227 101.001C101.227 100.593 101.317 100.206 101.496 99.8412C101.675 99.4762 101.932 99.1546 102.266 98.8763C102.6 98.598 103.005 98.3784 103.481 98.2176C103.964 98.0568 104.502 97.9764 105.096 97.9764C105.937 97.9764 106.657 98.1187 107.257 98.4032C107.863 98.6815 108.327 99.0619 108.649 99.5443C108.97 100.021 109.131 100.559 109.131 101.159H106.895C106.895 100.893 106.827 100.645 106.691 100.416C106.561 100.181 106.364 99.9927 106.098 99.8504C105.832 99.702 105.498 99.6278 105.096 99.6278C104.712 99.6278 104.394 99.6896 104.14 99.8133C103.893 99.9308 103.707 100.085 103.583 100.277C103.466 100.469 103.407 100.679 103.407 100.908C103.407 101.075 103.438 101.227 103.5 101.363C103.568 101.493 103.679 101.613 103.834 101.724C103.989 101.83 104.199 101.929 104.465 102.021C104.737 102.114 105.077 102.204 105.485 102.29C106.252 102.451 106.911 102.658 107.461 102.912C108.018 103.159 108.445 103.481 108.742 103.877C109.039 104.266 109.187 104.761 109.187 105.361C109.187 105.806 109.091 106.215 108.899 106.586C108.714 106.951 108.442 107.269 108.083 107.541C107.724 107.807 107.294 108.014 106.793 108.163C106.299 108.311 105.742 108.386 105.123 108.386C104.214 108.386 103.444 108.225 102.813 107.903C102.183 107.575 101.703 107.158 101.375 106.651C101.054 106.137 100.893 105.605 100.893 105.055H103.055C103.079 105.469 103.194 105.8 103.398 106.048C103.608 106.289 103.868 106.465 104.177 106.577C104.493 106.682 104.817 106.734 105.151 106.734C105.553 106.734 105.89 106.682 106.163 106.577C106.435 106.465 106.642 106.317 106.784 106.131C106.926 105.939 106.997 105.723 106.997 105.482ZM114.169 108.2H111.933V97.1971C111.933 96.4487 112.072 95.821 112.351 95.3138C112.635 94.8005 113.04 94.4139 113.566 94.1541C114.092 93.8882 114.713 93.7552 115.431 93.7552C115.653 93.7552 115.873 93.7707 116.089 93.8016C116.306 93.8263 116.516 93.8665 116.72 93.9222L116.664 95.6478C116.541 95.6169 116.405 95.5952 116.256 95.5829C116.114 95.5705 115.959 95.5643 115.792 95.5643C115.452 95.5643 115.158 95.6292 114.911 95.7591C114.67 95.8828 114.484 96.0653 114.354 96.3065C114.231 96.5477 114.169 96.8446 114.169 97.1971V108.2ZM116.238 98.162V99.7948H110.393V98.162H116.238ZM122.064 108.386C121.322 108.386 120.651 108.265 120.051 108.024C119.457 107.776 118.95 107.433 118.529 106.994C118.115 106.555 117.796 106.038 117.574 105.445C117.351 104.851 117.24 104.211 117.24 103.524V103.153C117.24 102.368 117.354 101.656 117.583 101.019C117.812 100.382 118.13 99.8381 118.539 99.3866C118.947 98.9289 119.429 98.5794 119.986 98.3382C120.542 98.097 121.145 97.9764 121.795 97.9764C122.512 97.9764 123.14 98.097 123.678 98.3382C124.216 98.5794 124.662 98.9196 125.014 99.3587C125.373 99.7917 125.639 100.308 125.812 100.908C125.991 101.508 126.081 102.17 126.081 102.893V103.849H118.325V102.244H123.873V102.068C123.861 101.666 123.78 101.288 123.632 100.936C123.49 100.583 123.27 100.299 122.973 100.082C122.676 99.8659 122.28 99.7577 121.786 99.7577C121.414 99.7577 121.084 99.8381 120.793 99.9989C120.508 100.153 120.27 100.379 120.079 100.676C119.887 100.973 119.738 101.332 119.633 101.752C119.534 102.167 119.485 102.634 119.485 103.153V103.524C119.485 103.963 119.544 104.372 119.661 104.749C119.785 105.12 119.964 105.445 120.199 105.723C120.434 106.001 120.719 106.221 121.053 106.382C121.387 106.536 121.767 106.614 122.194 106.614C122.732 106.614 123.211 106.505 123.632 106.289C124.052 106.072 124.417 105.766 124.727 105.37L125.905 106.512C125.688 106.827 125.407 107.13 125.06 107.421C124.714 107.705 124.29 107.937 123.789 108.117C123.295 108.296 122.72 108.386 122.064 108.386ZM130.07 100.073V108.2H127.834V98.162H129.968L130.07 100.073ZM133.141 98.097L133.122 100.175C132.986 100.15 132.838 100.132 132.677 100.119C132.523 100.107 132.368 100.101 132.213 100.101C131.83 100.101 131.493 100.157 131.202 100.268C130.911 100.373 130.667 100.528 130.469 100.732C130.277 100.93 130.129 101.171 130.024 101.455C129.919 101.74 129.857 102.058 129.838 102.411L129.328 102.448C129.328 101.817 129.39 101.233 129.514 100.695C129.637 100.157 129.823 99.6834 130.07 99.2752C130.324 98.867 130.639 98.5485 131.017 98.3197C131.4 98.0908 131.842 97.9764 132.343 97.9764C132.479 97.9764 132.625 97.9888 132.779 98.0135C132.94 98.0383 133.061 98.0661 133.141 98.097Z" fill="black"/>
</svg>
