<svg width="88" height="82" viewBox="0 0 88 82" fill="none" xmlns="http://www.w3.org/2000/svg">
<path d="M8.47949 73.521C8.47949 73.2427 8.4362 72.9953 8.34961 72.7788C8.26921 72.5623 8.12386 72.3644 7.91357 72.1851C7.70329 72.0057 7.40641 71.8325 7.02295 71.6655C6.64567 71.4924 6.16325 71.3161 5.57568 71.1367C4.93245 70.9388 4.3387 70.7192 3.79443 70.478C3.25635 70.2306 2.7863 69.9461 2.38428 69.6245C1.98226 69.2967 1.66992 68.9225 1.44727 68.502C1.22461 68.0752 1.11328 67.5835 1.11328 67.0269C1.11328 66.4764 1.2277 65.9754 1.45654 65.5239C1.69157 65.0724 2.02246 64.6828 2.44922 64.355C2.88216 64.021 3.39242 63.7643 3.97998 63.585C4.56755 63.3994 5.21696 63.3066 5.92822 63.3066C6.93018 63.3066 7.79297 63.4922 8.5166 63.8633C9.24642 64.2344 9.80615 64.7323 10.1958 65.3569C10.5916 65.9816 10.7896 66.6712 10.7896 67.4258H8.47949C8.47949 66.9805 8.38363 66.5877 8.19189 66.2476C8.00635 65.9012 7.72184 65.6291 7.33838 65.4312C6.9611 65.2332 6.48177 65.1343 5.90039 65.1343C5.34993 65.1343 4.89225 65.2178 4.52734 65.3848C4.16243 65.5518 3.8903 65.7775 3.71094 66.062C3.53158 66.3465 3.44189 66.6681 3.44189 67.0269C3.44189 67.2804 3.50065 67.5124 3.61816 67.7227C3.73568 67.9268 3.91504 68.1185 4.15625 68.2979C4.39746 68.471 4.70052 68.6349 5.06543 68.7896C5.43034 68.9442 5.86019 69.0926 6.35498 69.2349C7.10335 69.4575 7.75586 69.7049 8.3125 69.9771C8.86914 70.243 9.33301 70.5461 9.7041 70.8862C10.0752 71.2264 10.3535 71.613 10.5391 72.0459C10.7246 72.4727 10.8174 72.9582 10.8174 73.5024C10.8174 74.0715 10.703 74.5848 10.4741 75.0425C10.2453 75.494 9.91748 75.8805 9.49072 76.2021C9.07015 76.5176 8.56299 76.7619 7.96924 76.9351C7.38167 77.1021 6.72607 77.1855 6.00244 77.1855C5.35303 77.1855 4.71289 77.099 4.08203 76.9258C3.45736 76.7526 2.88835 76.4897 2.375 76.1372C1.86165 75.7785 1.45345 75.3332 1.15039 74.8013C0.847331 74.2632 0.695801 73.6354 0.695801 72.918H3.02441C3.02441 73.3571 3.09863 73.7313 3.24707 74.0405C3.40169 74.3498 3.61507 74.6034 3.88721 74.8013C4.15934 74.993 4.47477 75.1353 4.8335 75.228C5.1984 75.3208 5.58805 75.3672 6.00244 75.3672C6.54671 75.3672 7.0013 75.2899 7.36621 75.1353C7.7373 74.9806 8.01562 74.7642 8.20117 74.4858C8.38672 74.2075 8.47949 73.8859 8.47949 73.521ZM14.8623 62.75V77H12.6357V62.75H14.8623ZM14.4727 71.6099L13.749 71.6006C13.7552 70.9079 13.8511 70.2677 14.0366 69.6802C14.2284 69.0926 14.4943 68.5824 14.8345 68.1494C15.1808 67.7103 15.5952 67.3732 16.0776 67.1382C16.5601 66.897 17.0951 66.7764 17.6826 66.7764C18.1774 66.7764 18.6227 66.8444 19.0186 66.9805C19.4206 67.1165 19.7669 67.3361 20.0576 67.6392C20.3483 67.936 20.5679 68.3257 20.7163 68.8081C20.8709 69.2843 20.9482 69.8657 20.9482 70.5522V77H18.7031V70.5337C18.7031 70.0513 18.632 69.6678 18.4897 69.3833C18.3537 69.0988 18.1527 68.8947 17.8867 68.771C17.6208 68.6411 17.2961 68.5762 16.9126 68.5762C16.5106 68.5762 16.1549 68.6566 15.8457 68.8174C15.5426 68.9782 15.2891 69.1978 15.085 69.4761C14.8809 69.7544 14.7262 70.076 14.6211 70.4409C14.5221 70.8058 14.4727 71.1955 14.4727 71.6099ZM22.7852 72.0923V71.8789C22.7852 71.1553 22.8903 70.4842 23.1006 69.8657C23.3109 69.241 23.6139 68.6999 24.0098 68.2422C24.4118 67.7783 24.9004 67.4196 25.4756 67.166C26.057 66.9062 26.7126 66.7764 27.4424 66.7764C28.1784 66.7764 28.834 66.9062 29.4092 67.166C29.9906 67.4196 30.4823 67.7783 30.8843 68.2422C31.2863 68.6999 31.5924 69.241 31.8027 69.8657C32.013 70.4842 32.1182 71.1553 32.1182 71.8789V72.0923C32.1182 72.8159 32.013 73.487 31.8027 74.1055C31.5924 74.724 31.2863 75.2651 30.8843 75.729C30.4823 76.1867 29.9937 76.5454 29.4185 76.8052C28.8433 77.0588 28.1908 77.1855 27.4609 77.1855C26.7249 77.1855 26.0662 77.0588 25.4849 76.8052C24.9097 76.5454 24.4211 76.1867 24.019 75.729C23.617 75.2651 23.3109 74.724 23.1006 74.1055C22.8903 73.487 22.7852 72.8159 22.7852 72.0923ZM25.021 71.8789V72.0923C25.021 72.5438 25.0674 72.9705 25.1602 73.3726C25.2529 73.7746 25.3983 74.1271 25.5962 74.4302C25.7941 74.7332 26.0477 74.9714 26.3569 75.1445C26.6662 75.3177 27.0342 75.4043 27.4609 75.4043C27.8753 75.4043 28.234 75.3177 28.5371 75.1445C28.8464 74.9714 29.0999 74.7332 29.2979 74.4302C29.4958 74.1271 29.6411 73.7746 29.7339 73.3726C29.8328 72.9705 29.8823 72.5438 29.8823 72.0923V71.8789C29.8823 71.4336 29.8328 71.013 29.7339 70.6172C29.6411 70.2152 29.4927 69.8595 29.2886 69.5503C29.0907 69.241 28.8371 68.9998 28.5278 68.8267C28.2248 68.6473 27.863 68.5576 27.4424 68.5576C27.0218 68.5576 26.6569 68.6473 26.3477 68.8267C26.0446 68.9998 25.7941 69.241 25.5962 69.5503C25.3983 69.8595 25.2529 70.2152 25.1602 70.6172C25.0674 71.013 25.021 71.4336 25.021 71.8789ZM36.2373 68.8916V80.8594H34.0015V66.9619H36.061L36.2373 68.8916ZM42.7778 71.8882V72.083C42.7778 72.8128 42.6912 73.4901 42.5181 74.1147C42.3511 74.7332 42.1006 75.2744 41.7666 75.7383C41.4388 76.196 41.0337 76.5516 40.5513 76.8052C40.0688 77.0588 39.5122 77.1855 38.8813 77.1855C38.2567 77.1855 37.7093 77.0711 37.2393 76.8423C36.7754 76.6073 36.3826 76.2764 36.061 75.8496C35.7394 75.4229 35.4797 74.9219 35.2817 74.3467C35.09 73.7653 34.9539 73.1283 34.8735 72.4355V71.6841C34.9539 70.9481 35.09 70.2801 35.2817 69.6802C35.4797 69.0802 35.7394 68.5638 36.061 68.1309C36.3826 67.6979 36.7754 67.3639 37.2393 67.1289C37.7031 66.8939 38.2443 66.7764 38.8628 66.7764C39.4937 66.7764 40.0534 66.9001 40.542 67.1475C41.0306 67.3887 41.4419 67.735 41.7759 68.1865C42.1099 68.6318 42.3604 69.1699 42.5273 69.8008C42.6943 70.4255 42.7778 71.1213 42.7778 71.8882ZM40.542 72.083V71.8882C40.542 71.4243 40.4987 70.9945 40.4121 70.5986C40.3255 70.1966 40.1895 69.8441 40.0039 69.541C39.8184 69.238 39.5802 69.0029 39.2896 68.8359C39.005 68.6628 38.6618 68.5762 38.2598 68.5762C37.8639 68.5762 37.5238 68.6442 37.2393 68.7803C36.9548 68.9102 36.7166 69.0926 36.5249 69.3276C36.3332 69.5627 36.1847 69.8379 36.0796 70.1533C35.9744 70.4626 35.9002 70.7996 35.8569 71.1646V72.9644C35.9312 73.4097 36.0579 73.8179 36.2373 74.189C36.4167 74.5601 36.6702 74.8569 36.998 75.0796C37.332 75.2961 37.7588 75.4043 38.2783 75.4043C38.6803 75.4043 39.0236 75.3177 39.3081 75.1445C39.5926 74.9714 39.8245 74.7332 40.0039 74.4302C40.1895 74.1209 40.3255 73.7653 40.4121 73.3633C40.4987 72.9613 40.542 72.5345 40.542 72.083ZM46.9248 68.8916V80.8594H44.689V66.9619H46.7485L46.9248 68.8916ZM53.4653 71.8882V72.083C53.4653 72.8128 53.3787 73.4901 53.2056 74.1147C53.0386 74.7332 52.7881 75.2744 52.4541 75.7383C52.1263 76.196 51.7212 76.5516 51.2388 76.8052C50.7563 77.0588 50.1997 77.1855 49.5688 77.1855C48.9442 77.1855 48.3968 77.0711 47.9268 76.8423C47.4629 76.6073 47.0701 76.2764 46.7485 75.8496C46.4269 75.4229 46.1672 74.9219 45.9692 74.3467C45.7775 73.7653 45.6414 73.1283 45.561 72.4355V71.6841C45.6414 70.9481 45.7775 70.2801 45.9692 69.6802C46.1672 69.0802 46.4269 68.5638 46.7485 68.1309C47.0701 67.6979 47.4629 67.3639 47.9268 67.1289C48.3906 66.8939 48.9318 66.7764 49.5503 66.7764C50.1812 66.7764 50.7409 66.9001 51.2295 67.1475C51.7181 67.3887 52.1294 67.735 52.4634 68.1865C52.7974 68.6318 53.0479 69.1699 53.2148 69.8008C53.3818 70.4255 53.4653 71.1213 53.4653 71.8882ZM51.2295 72.083V71.8882C51.2295 71.4243 51.1862 70.9945 51.0996 70.5986C51.013 70.1966 50.877 69.8441 50.6914 69.541C50.5059 69.238 50.2677 69.0029 49.9771 68.8359C49.6925 68.6628 49.3493 68.5762 48.9473 68.5762C48.5514 68.5762 48.2113 68.6442 47.9268 68.7803C47.6423 68.9102 47.4041 69.0926 47.2124 69.3276C47.0207 69.5627 46.8722 69.8379 46.7671 70.1533C46.6619 70.4626 46.5877 70.7996 46.5444 71.1646V72.9644C46.6187 73.4097 46.7454 73.8179 46.9248 74.189C47.1042 74.5601 47.3577 74.8569 47.6855 75.0796C48.0195 75.2961 48.4463 75.4043 48.9658 75.4043C49.3678 75.4043 49.7111 75.3177 49.9956 75.1445C50.2801 74.9714 50.512 74.7332 50.6914 74.4302C50.877 74.1209 51.013 73.7653 51.0996 73.3633C51.1862 72.9613 51.2295 72.5345 51.2295 72.083ZM57.7607 66.9619V77H55.5156V66.9619H57.7607ZM55.3672 64.3271C55.3672 63.987 55.4785 63.7056 55.7012 63.4829C55.93 63.2541 56.2454 63.1396 56.6475 63.1396C57.0433 63.1396 57.3556 63.2541 57.5845 63.4829C57.8133 63.7056 57.9277 63.987 57.9277 64.3271C57.9277 64.6611 57.8133 64.9395 57.5845 65.1621C57.3556 65.3848 57.0433 65.4961 56.6475 65.4961C56.2454 65.4961 55.93 65.3848 55.7012 65.1621C55.4785 64.9395 55.3672 64.6611 55.3672 64.3271ZM62.4272 69.105V77H60.1914V66.9619H62.2974L62.4272 69.105ZM62.0283 71.6099L61.3047 71.6006C61.3109 70.8893 61.4098 70.2368 61.6016 69.6431C61.7995 69.0493 62.0716 68.5391 62.418 68.1123C62.7705 67.6855 63.1911 67.3577 63.6797 67.1289C64.1683 66.8939 64.7126 66.7764 65.3125 66.7764C65.7949 66.7764 66.231 66.8444 66.6206 66.9805C67.0164 67.1104 67.3535 67.3237 67.6318 67.6206C67.9163 67.9175 68.1328 68.304 68.2812 68.7803C68.4297 69.2503 68.5039 69.8286 68.5039 70.5151V77H66.2588V70.5059C66.2588 70.0234 66.1877 69.6431 66.0454 69.3647C65.9093 69.0802 65.7083 68.8792 65.4424 68.7617C65.1826 68.638 64.8579 68.5762 64.4683 68.5762C64.0848 68.5762 63.7415 68.6566 63.4385 68.8174C63.1354 68.9782 62.8787 69.1978 62.6685 69.4761C62.4644 69.7544 62.3066 70.076 62.1953 70.4409C62.084 70.8058 62.0283 71.1955 62.0283 71.6099ZM77.2153 66.9619H79.2471V76.7217C79.2471 77.6247 79.0553 78.3916 78.6719 79.0225C78.2884 79.6533 77.7534 80.1326 77.0669 80.4604C76.3804 80.7944 75.5856 80.9614 74.6826 80.9614C74.2992 80.9614 73.8724 80.9058 73.4023 80.7944C72.9385 80.6831 72.487 80.5037 72.0479 80.2563C71.6149 80.0151 71.2531 79.6966 70.9624 79.3008L72.0107 77.9834C72.3695 78.4102 72.7653 78.7225 73.1982 78.9204C73.6312 79.1183 74.0858 79.2173 74.562 79.2173C75.0754 79.2173 75.5114 79.1214 75.8701 78.9297C76.235 78.7441 76.5164 78.4689 76.7144 78.104C76.9123 77.7391 77.0112 77.2938 77.0112 76.7681V69.2349L77.2153 66.9619ZM70.3965 72.0923V71.8975C70.3965 71.1367 70.4893 70.444 70.6748 69.8193C70.8604 69.1885 71.1263 68.6473 71.4727 68.1958C71.819 67.7381 72.2396 67.3887 72.7344 67.1475C73.2292 66.9001 73.7889 66.7764 74.4136 66.7764C75.063 66.7764 75.6165 66.8939 76.0742 67.1289C76.5381 67.3639 76.9246 67.701 77.2339 68.1401C77.5431 68.5731 77.7843 69.0926 77.9575 69.6987C78.1369 70.2987 78.2699 70.9666 78.3564 71.7026V72.3242C78.276 73.0417 78.14 73.6973 77.9482 74.291C77.7565 74.8848 77.5029 75.3981 77.1875 75.8311C76.8721 76.264 76.4824 76.598 76.0186 76.833C75.5609 77.068 75.0197 77.1855 74.395 77.1855C73.7827 77.1855 73.2292 77.0588 72.7344 76.8052C72.2458 76.5516 71.8252 76.196 71.4727 75.7383C71.1263 75.2806 70.8604 74.7425 70.6748 74.124C70.4893 73.4993 70.3965 72.8221 70.3965 72.0923ZM72.6323 71.8975V72.0923C72.6323 72.55 72.6756 72.9767 72.7622 73.3726C72.855 73.7684 72.9941 74.1178 73.1797 74.4209C73.3714 74.7178 73.6126 74.9528 73.9033 75.126C74.2002 75.293 74.5496 75.3765 74.9517 75.3765C75.4774 75.3765 75.9072 75.2651 76.2412 75.0425C76.5814 74.8198 76.8411 74.5199 77.0205 74.1426C77.2061 73.7591 77.3359 73.3324 77.4102 72.8623V71.1831C77.373 70.8182 77.2957 70.478 77.1782 70.1626C77.0669 69.8472 76.9154 69.5719 76.7236 69.3369C76.5319 69.0957 76.2907 68.9102 76 68.7803C75.7093 68.6442 75.366 68.5762 74.9702 68.5762C74.5682 68.5762 74.2188 68.6628 73.9219 68.8359C73.625 69.0091 73.3807 69.2472 73.189 69.5503C73.0034 69.8534 72.8643 70.2059 72.7715 70.6079C72.6787 71.0099 72.6323 71.4398 72.6323 71.8975Z" fill="black"/>
<path d="M74.9605 28.2512H23.1571L25.7582 25.2428L68.9755 25.1983C70.437 25.1983 71.6896 24.6055 71.9506 23.7855L77.9356 4.76204C78.0922 4.26311 77.8573 3.74937 77.2832 3.35912C76.9994 3.16706 76.6455 3.01235 76.2459 2.90572C75.8463 2.79909 75.4107 2.7431 74.9692 2.74163L19.9906 2.63789L19.5209 1.38317C19.2251 0.582906 17.955 0 16.511 0H3.0708C2.25637 0 1.4753 0.183719 0.899416 0.51074C0.323529 0.837762 0 1.2813 0 1.74378C0 2.20626 0.323529 2.64979 0.899416 2.97681C1.4753 3.30384 2.25637 3.48755 3.0708 3.48755H14.023L16.076 9.0301L21.1302 22.926L14.6233 28.9576C14.2853 29.2166 14.0818 29.5241 14.0357 29.8453C13.9896 30.1666 14.1027 30.4888 14.3623 30.7754C14.8842 31.3633 15.9368 31.7338 17.1025 31.7338H22.5656C21.4009 32.6122 20.7718 33.6821 20.7736 34.7817C20.7736 37.5777 24.7752 39.85 29.6989 39.85C34.6226 39.85 38.6242 37.5777 38.6242 34.7817C38.6242 33.6801 37.9805 32.6081 36.8322 31.7338H50.8465C49.6818 32.6122 49.0528 33.6821 49.0545 34.7817C49.0545 37.5777 53.0561 39.85 57.9798 39.85C62.9035 39.85 66.9051 37.5777 66.9051 34.7817C66.9051 33.6801 66.2614 32.6081 65.1131 31.7338H74.9692C76.6568 31.7338 78.04 30.9533 78.04 29.99C78.0349 29.528 77.7083 29.0859 77.1314 28.7601C76.5545 28.4344 75.7741 28.2514 74.9605 28.2512V28.2512ZM21.2694 6.07605L71.3591 6.16991L66.4527 21.77L27.1065 21.8096L21.2694 6.07605ZM29.6989 36.3427C28.1852 36.3427 26.9499 35.6412 26.9499 34.7817C26.9499 33.9221 28.1852 33.2207 29.6989 33.2207C31.2125 33.2207 32.4478 33.9221 32.4478 34.7817C32.4478 35.1957 32.1582 35.5927 31.6427 35.8855C31.1271 36.1782 30.4279 36.3427 29.6989 36.3427V36.3427ZM57.9798 36.3427C56.4661 36.3427 55.2309 35.6412 55.2309 34.7817C55.2309 33.9221 56.4661 33.2207 57.9798 33.2207C59.4934 33.2207 60.7287 33.9221 60.7287 34.7817C60.7287 35.1957 60.4391 35.5927 59.9236 35.8855C59.408 36.1782 58.7088 36.3427 57.9798 36.3427V36.3427Z" fill="black" fill-opacity="0.44"/>
</svg>
