<svg width="81" height="89" viewBox="0 0 81 89" fill="none" xmlns="http://www.w3.org/2000/svg">
<path d="M13.5 26.5933V13.8285H21V9.57359H0V13.8285H7.5V26.5933H13.5ZM55.0281 26.5933L59.25 21.9871L63.4719 26.5933H70.6281L62.8281 18.0834L70.6281 9.57359H63.4719L59.25 14.1798L55.0281 9.57359H47.8719L55.6719 18.0834L47.8719 26.5933H55.0281ZM75 9.57359H81V26.5933H75V9.57359ZM0 0H81V4.25493H0V0ZM0 31.912H81V36.1669H0V31.912ZM37.7507 23.4021L39.2507 26.5933H45.5752L37.575 9.57359H28.959L21.5642 26.5933H27.8424L29.2299 23.4021H37.7507ZM33.3225 13.9809L35.7508 19.1472H31.0778L33.3225 13.9809Z" fill="black" fill-opacity="0.49"/>
<path d="M23.2007 75.9141V88H21.1338V75.9141H23.2007ZM26.9941 75.9141V77.5742H17.3735V75.9141H26.9941ZM32.3398 86.1987V81.9155C32.3398 81.5946 32.2817 81.3179 32.1655 81.0854C32.0493 80.853 31.8722 80.6732 31.6343 80.5459C31.4019 80.4186 31.1086 80.355 30.7544 80.355C30.4279 80.355 30.1457 80.4103 29.9077 80.521C29.6698 80.6317 29.4844 80.7811 29.3516 80.9692C29.2188 81.1574 29.1523 81.3704 29.1523 81.6084H27.1602C27.1602 81.2542 27.2459 80.9111 27.4175 80.5791C27.589 80.2471 27.8381 79.951 28.1646 79.6909C28.491 79.4308 28.8812 79.2261 29.335 79.0767C29.7887 78.9272 30.2979 78.8525 30.8623 78.8525C31.5374 78.8525 32.1351 78.966 32.6553 79.1929C33.181 79.4198 33.5933 79.7629 33.8921 80.2222C34.1965 80.6759 34.3486 81.2459 34.3486 81.9321V85.9248C34.3486 86.3343 34.3763 86.7023 34.4316 87.0288C34.4925 87.3498 34.5783 87.6292 34.689 87.8672V88H32.6387C32.5446 87.7842 32.4699 87.5103 32.4146 87.1782C32.3647 86.8407 32.3398 86.5142 32.3398 86.1987ZM32.6304 82.5381L32.647 83.7749H31.2109C30.8402 83.7749 30.5137 83.8109 30.2314 83.8828C29.9492 83.9492 29.714 84.0488 29.5259 84.1816C29.3377 84.3145 29.1966 84.4749 29.1025 84.6631C29.0085 84.8512 28.9614 85.0643 28.9614 85.3022C28.9614 85.5402 29.0168 85.7588 29.1274 85.958C29.2381 86.1517 29.3986 86.3039 29.6089 86.4146C29.8247 86.5252 30.0848 86.5806 30.3892 86.5806C30.7987 86.5806 31.1556 86.4976 31.46 86.3315C31.7699 86.16 32.0133 85.9525 32.1904 85.709C32.3675 85.46 32.4616 85.2248 32.4727 85.0034L33.1201 85.8916C33.0537 86.1185 32.9403 86.362 32.7798 86.6221C32.6193 86.8822 32.409 87.1312 32.1489 87.3691C31.8944 87.6016 31.5872 87.7925 31.2275 87.9419C30.8734 88.0913 30.4639 88.166 29.999 88.166C29.4124 88.166 28.8895 88.0498 28.4302 87.8174C27.9709 87.5794 27.6112 87.2612 27.3511 86.8628C27.091 86.4588 26.9609 86.0023 26.9609 85.4932C26.9609 85.0173 27.0495 84.5967 27.2266 84.2314C27.4092 83.8607 27.6748 83.5508 28.0234 83.3018C28.3776 83.0527 28.8092 82.8646 29.3184 82.7373C29.8275 82.6045 30.4085 82.5381 31.0615 82.5381H32.6304ZM37.9678 79.0186L39.6777 81.9985L41.4209 79.0186H43.6206L40.8979 83.4263L43.7285 88H41.5288L39.7026 84.8955L37.8765 88H35.6685L38.4907 83.4263L35.7764 79.0186H37.9678ZM47.1318 79.0186V88H45.123V79.0186H47.1318ZM44.9902 76.6611C44.9902 76.3568 45.0898 76.105 45.2891 75.9058C45.4938 75.701 45.776 75.5986 46.1357 75.5986C46.4899 75.5986 46.7694 75.701 46.9741 75.9058C47.1789 76.105 47.2812 76.3568 47.2812 76.6611C47.2812 76.96 47.1789 77.209 46.9741 77.4082C46.7694 77.6074 46.4899 77.707 46.1357 77.707C45.776 77.707 45.4938 77.6074 45.2891 77.4082C45.0898 77.209 44.9902 76.96 44.9902 76.6611Z" fill="black"/>
</svg>
