<svg width="60" height="104" viewBox="0 0 60 104" fill="none" xmlns="http://www.w3.org/2000/svg">
<path d="M20.2583 97.2856L22.6655 87.9141H23.9272L23.7861 90.3296L21.2129 100H19.9014L20.2583 97.2856ZM18.457 87.9141L20.4077 97.2109L20.582 100H19.1875L16.3901 87.9141H18.457ZM26.6582 97.186L28.584 87.9141H30.6592L27.8618 100H26.4673L26.6582 97.186ZM24.417 87.9141L26.7993 97.3105L27.1479 100H25.8364L23.3047 90.3296L23.1719 87.9141H24.417ZM34.1455 91.0186V100H32.1367V91.0186H34.1455ZM32.0039 88.6611C32.0039 88.3568 32.1035 88.105 32.3027 87.9058C32.5075 87.701 32.7897 87.5986 33.1494 87.5986C33.5036 87.5986 33.783 87.701 33.9878 87.9058C34.1925 88.105 34.2949 88.3568 34.2949 88.6611C34.2949 88.96 34.1925 89.209 33.9878 89.4082C33.783 89.6074 33.5036 89.707 33.1494 89.707C32.7897 89.707 32.5075 89.6074 32.3027 89.4082C32.1035 89.209 32.0039 88.96 32.0039 88.6611ZM38.9102 100H36.9014V90.4375C36.9014 89.7126 37.0452 89.1011 37.333 88.603C37.6263 88.105 38.0441 87.7259 38.5864 87.4658C39.1343 87.2057 39.7845 87.0757 40.5371 87.0757C40.9798 87.0757 41.4059 87.1227 41.8154 87.2168C42.2305 87.3109 42.6593 87.4299 43.1021 87.5737L42.7949 89.2007C42.5127 89.1066 42.2 89.0181 41.8569 88.9351C41.5138 88.8465 41.1182 88.8022 40.6699 88.8022C40.0667 88.8022 39.6213 88.9406 39.3335 89.2173C39.0513 89.4884 38.9102 89.8952 38.9102 90.4375V100ZM40.7114 91.0186V92.4795H35.5234V91.0186H40.7114ZM44.0483 91.0186V100H42.0479V91.0186H44.0483Z" fill="black"/>
<path d="M44.1197 33.2197C40.3553 29.5152 35.4389 27.2727 30.0537 27.2727C24.6684 27.2727 19.752 29.5151 15.981 33.2273C15.8768 33.3335 15.8131 33.4811 15.8031 33.6393C15.7931 33.7975 15.8376 33.9539 15.9274 34.0758L18.3387 37.3258C18.5329 37.5833 18.8745 37.6136 19.1023 37.3939C22.0226 34.4848 25.8539 32.7273 30.0537 32.7273C34.2534 32.7273 38.0847 34.4848 41.005 37.3864C41.2328 37.6061 41.5744 37.5758 41.7686 37.3182L44.1799 34.0682C44.3675 33.8182 44.3407 33.4394 44.1197 33.2197ZM51.9832 22.6061C46.042 17.0076 38.3995 13.6364 30.0537 13.6364C21.7078 13.6364 14.0653 17.0076 8.11739 22.6061C8.00858 22.7099 7.94047 22.8581 7.92792 23.0185C7.91538 23.1788 7.9594 23.3383 8.05041 23.4621L10.4617 26.7121C10.6493 26.9697 10.9909 27 11.2119 26.7879C16.3226 21.9848 22.8934 19.0909 30.0537 19.0909C37.2139 19.0909 43.7848 21.9848 48.8887 26.7879C49.1164 27 49.4513 26.9697 49.6389 26.7121L52.0502 23.4621C52.2378 23.2045 52.211 22.8182 51.9832 22.6061ZM59.7999 12.0758C51.6684 4.5303 41.2596 0 29.9197 0C18.6535 0 8.31163 4.4697 0.200237 11.9242C0.144509 11.9749 0.098303 12.0376 0.0643398 12.1088C0.0303767 12.1799 0.00934311 12.258 0.00247728 12.3385C-0.00438855 12.419 0.00305235 12.5002 0.0243619 12.5774C0.0456714 12.6545 0.0804186 12.7261 0.126558 12.7879L2.53787 16.0379C2.72542 16.2879 3.06032 16.3258 3.28136 16.1212C10.5622 9.44697 19.8257 5.45455 29.9197 5.45455C40.0874 5.45455 49.4112 9.50758 56.7121 16.2652C56.9398 16.4773 57.2747 16.4394 57.4623 16.1818L59.8736 12.9318C60.0678 12.6742 60.0343 12.2879 59.7999 12.0758ZM25.6999 45.1515C25.6999 46.4374 26.1515 47.6706 26.9555 48.5799C27.7594 49.4892 28.8497 50 29.9867 50C31.1236 50 32.214 49.4892 33.0179 48.5799C33.8218 47.6706 34.2735 46.4374 34.2735 45.1515C34.2735 43.8656 33.8218 42.6324 33.0179 41.7231C32.214 40.8139 31.1236 40.303 29.9867 40.303C28.8497 40.303 27.7594 40.8139 26.9555 41.7231C26.1515 42.6324 25.6999 43.8656 25.6999 45.1515Z" fill="black" fill-opacity="0.49"/>
</svg>
